<?xml version="1.0" encoding="UTF-8"?>
<svg id="_레이어_1" data-name="레이어 1" xmlns="http://www.w3.org/2000/svg" viewBox="0 0 1000 1000">
  <defs>
    <style>
      .cls-1 {
        fill: #040000;
      }

      .cls-2 {
        fill: none;
        stroke: #040000;
        stroke-miterlimit: 10;
        stroke-width: 4px;
      }
    </style>
  </defs>
  <path class="cls-2" d="m486.4,122.02s-16.76,11.81-13.33,35.81c2.82,19.71-.6,24.13-1.91,25.08-.58.42-1.15.86-1.64,1.38-1.68,1.8-4.32,5.39-1.78,8.2,3.52,3.9,5.52.48,7.81,6.86,2.29,6.38,5.62,16.57,19.52,17.81s37.24,2.1,47.24-3.05c10-5.14,16.76-22.86,16.76-22.86,0,0,12.86-36.1,3.81-55.43s-46.57-35.52-76.48-13.81Z"/>
  <path class="cls-2" d="m548.87,888.56s-11.68,11.17,0,12.19,28.44-.38,32-7.49c3.56-7.11,2.03-22.22,5.84-27.56,3.81-5.33,12.32-17.02,12.32-17.02,0,0,13.59-15.24,3.43-25.9s-14.6-16.38-15.24-23.62-.89-49.65.63-62.6,2.29-60.06-2.67-71.24-5.08-10.41-6.22-19.17.19-126.22.19-126.22c0,0-.19-15.43,7.81-22.48,0,0,10.86-13.52,3.05-36.38s-20.19-39.05-20.19-39.05c0,0-12-14.1-6.86-38.48s9.9-64.76,9.9-64.76c0,0,4.38-47.05-3.43-65.52s-12.76-39.81-46.29-35.24-51.81,15.62-51.81,15.62c0,0-23.43,19.62-68,18.1s-98.86,4.95-98.86,4.95c0,0-21.33,6.67-39.24,6.86s-19.33.1-19.33.1c0,0-17.24,1.14-27.33-6.1-10.1-7.24-34.48-10.76-34.48-10.76,0,0-13.81-4.1-14.29,4.76,0,0-1.81,6.86,12.19,10.57s24.86,7.05,25.9,10.38,7.43,10.86,23.05,10.29,51.62,3.62,51.62,3.62c0,0,50.54,11.68,82.54,8.13s24.59-3.49,24.59-3.49c0,0,43.73-12,66.08-10.73s33.78-.44,33.78-.44c0,0-18.79,29.02-14.41,46.92,0,0,1.9,6.19,6.76,9.52,4.86,3.33,7.24,11.81,7.71,18.67s4.95,76.95-.76,94.86c-5.71,17.9-2.1,65.9,4.76,90.86,6.86,24.95,43.05,141.14,43.05,142.67s28.95,92.19,23.62,122.29c0,0-3.05,40-1.52,52.76s2.67,23.05-8.95,29.33l-.95.83Z"/>
  <path class="cls-1" d="m510.8,275.25l-18.64,2.03-4.46,7.08-5.17,10.73-4,8.38-2.35,8-1.52,7.49.32,6.86,2.86,6.48,2.86,3.05,4.44,3.81,2.22,4.89,1.02,3.3,1.08,6.6.7,13.02.95,20.13.63,18.29-.19,13.78-.25,12.44-.95,9.97-1.14,6.86-2.03,8.63-1.08,11.62.19,19.11.76,11.87.51,4.06s2.67-20.13,15.94-28c13.27-7.87,32.44-18.98,55.75-12.83,0,0,27.17,9.49,25.27,36.73l-.03.49,2.24-2.4,2.89-4.81,1.59-3.9,1.67-9.51-.19-5.13-1.25-9.68-2.22-5.48-5.68-14.21-2.25-4.13-6.06-10.52-1.87-2.73-6.12-9.82-3.8-8.48-1.85-12.01.29-7.4,2.17-12.4,2.9-16.19,3.43-24.5,1.29-6.93s-22.61,2.09-32.52-4.96-22.54-19.11-26.86-33.33c0,0-2.86-11.46-.84-15.55.21-.42-.14-.89-.6-.8Z"/>
  <path class="cls-1" d="m519.67,166.95c3.37.73,3.59,1.95,4.79,5.6.08,3-1.24,5.99-2.06,6.85,5.45,5.04,24.71,22.36,31.87,22.36,0,0,4.32-3.62,9.21-23.35,5.03-20.31,7.75-37.21.25-49.14-7.49-11.94-27.75-23.55-52.44-19.56-35.05,5.67-36.7,27.81-38.73,36.95,0,0,14.22-3.43,23.49,9.14,6.68,9.06,14.29,12.71,18.01,14.05.64-1.68,2.13-3,4.46-3"/>
  <path class="cls-1" d="m542.34,115.26s-6.87-2.75-8.67-11.1,5.18-10.46,10.04-11.73c4.86-1.27,10.99-3.49,16.07,2.85s9.51,9.72,4.12,16.38-7.72,9.62-11.73,9.62-9.83-6.02-9.83-6.02Z"/>
</svg>