<?xml version="1.0" encoding="UTF-8"?>
<svg id="_레이어_1" data-name="레이어 1" xmlns="http://www.w3.org/2000/svg" viewBox="0 0 1000 1000">
  <defs>
    <style>
      .cls-1 {
        fill: #fff;
      }

      .cls-1, .cls-2 {
        stroke: #93a6d5;
        stroke-miterlimit: 10;
        stroke-width: 4px;
      }

      .cls-2 {
        fill: none;
      }

      .cls-3 {
        fill: #93a6d5;
      }
    </style>
  </defs>
  <g>
    <path class="cls-2" d="m452.82,686.82s1.17,20.47,23.36,30.24c18.23,8.03,20.17,13.26,20.29,14.88.05.72.12,1.43.31,2.12.64,2.38,2.3,6.52,6.02,5.85,5.18-.93,3.32-4.44,9.95-3.01s17.04,3.99,25.44-7.17c8.4-11.15,21.45-30.51,22.37-41.72.92-11.21-10.55-26.31-10.55-26.31,0,0-23.85-29.99-45.05-32.52-21.19-2.53-54.77,20.77-52.13,57.63Z"/>
    <path class="cls-3" d="m508.55,682.31c2.4-2.47,3.55-2.01,7.29-1.11,2.59,1.52,4.43,4.21,4.73,5.37,7.15-1.96,32.04-9.16,35.83-15.24,0,0-.79-5.58-14.96-20.15-14.59-15.01-27.5-26.24-41.59-26.18-14.09.05-34.66,11.12-44.31,34.19-13.71,32.75,4.22,45.85,10.91,52.41,0,0,4.6-13.89,20.17-15.11,11.23-.89,18.34-5.41,21.44-7.87-1.09-1.43-1.42-3.39-.19-5.37"/>
    <path class="cls-3" d="m476.64,635.75s-5.96,4.38-14,1.49c-8.04-2.89-6.15-9.93-4.66-14.72s2.85-11.18,10.91-12.13,13.28-2.94,16.09,5.16,4.09,11.63,1.97,15.04-10.31,5.16-10.31,5.16Z"/>
  </g>
  <path class="cls-1" d="m600.56,725.51s-9.9-3.81-17.02,9.14-32.51,55.11-32.51,55.11c0,0-27.37,44.57-49.84,64s-64.95,57.33-64.95,57.33c0,0-7.81,6.86-11.33,13.24s-10,9.14-18.95,8.67-27.52,11.9-27.52,11.9c0,0-11.14,6.38-14.19.29s20.95-23.62,20.95-23.62c0,0,9.02-5.71,14.48-8s17.27-.13,30.73-21.84,47.17-79.3,78.98-105.78,36.57-60.38,36.57-60.38c0,0,1.27-6.79.63-12.89s2.16-35.05,22.1-54.35,24.76-32,24.76-32c0,0,14.6-38.86,13.21-72.51,0,0-1.75-10.54-14.7-24.73s-13.05-52.1-8.48-83.14c0,0,1.14-3.9-2.48-12.86s-4.38-69.43-2.29-81.43-10.1-53.62-19.05-61.81-30.73-29.49-30.98-60.1-.51-60.95-.51-60.95c0,0,1.14-27.05-13.21-37.97s-19.43-19.17-18.03-31.62,6.98-19.56.25-34.16-10.67-25.78-.51-27.81,24.13,34.79,28.7,65.02,11.05,38.73,11.05,38.73c0,0,40.13,70.48,42.92,93.21s11.94,28.7,11.94,28.7c0,0,73.52,88.76,79.37,180.19,0,0,4.44,82.29.25,131.05s-4.57,91.24-4.57,91.24c0,0,2.29,25.81-8,42.57s-50.54,18.38-54.41,17.75c0,0-2.76.21-3.37-.19Z"/>
  <path class="cls-3" d="m589.76,727.16s17.65-4.83,20.7-26.29,2.16-57.21-19.75-69.11l2.25-4.25,2.03-5.11,2.1-7.24,2.73-8.98,3.33-15.21,1.37-7.37,1.24-8.51.83-8.57v-13.21l-1.71-4.67-2.76-5.87-4.35-6.54-6.44-7.9-5.62-9.94-3.02-11.71-1.3-9.62-.51-16.13.7-18.79,1.78-15.05.22-4.48s15.57,25.38,42.95,25.9,39.81-17.05,43.37-33.43l.68,8.79.45,8.93.29,8.98.43,8.79.52,21.93.36,14.38-.02,17.45.26,9.07-.33,7.88-.5,8.43v7.95l-.5,8.36-.71,8.24-.55,8.52-.9,9.14-.48,7.21-.71,13.69-.9,15.62-.31,15.79-.52,14.86.1,15.33-1.26,12.43-2,9.93-1.21,3.39-3.27,7.56-4.98,5.37-7.05,4.29-6.95,2.79-7.34,2.28-13.29,2.52-8.06.84-5.63-.13-4.54-.17-2.79-.62-2.56-.11s-3.9,1.84-4,1.86-1.81.52-1.81.52Z"/>
</svg>