<?xml version="1.0" encoding="UTF-8"?>
<svg id="_레이어_1" data-name="레이어 1" xmlns="http://www.w3.org/2000/svg" viewBox="0 0 1000 1000">
  <defs>
    <style>
      .cls-1 {
        fill: #040000;
      }

      .cls-2 {
        fill: none;
      }

      .cls-2, .cls-3 {
        stroke: #231815;
        stroke-miterlimit: 10;
        stroke-width: 4px;
      }

      .cls-3 {
        fill: #fff;
      }
    </style>
  </defs>
  <g>
    <path class="cls-2" d="m272.55,513.57s9.64,18.1,33.88,17.67c19.91-.35,23.87,3.59,24.65,5.01.35.63.71,1.24,1.17,1.8,1.58,1.89,4.82,4.95,7.92,2.79,4.31-3.01,1.16-5.42,7.77-6.9s17.14-3.52,20.09-17.16c2.95-13.64,6.7-36.69,2.84-47.25-3.86-10.56-20.6-19.47-20.6-19.47,0,0-34.22-17.24-54.53-10.66-20.31,6.58-41.03,41.81-23.19,74.17Z"/>
    <path class="cls-1" d="m321.27,486.14c1.14-3.25,2.38-3.32,6.15-4.06,2.99.29,5.79,1.97,6.54,2.89,5.67-4.78,25.25-21.74,26.14-28.85,0,0-3.06-4.73-22.03-12.03-19.53-7.51-35.96-12.3-48.73-6.35-12.77,5.95-26.81,24.62-25.91,49.61,1.28,35.48,23.04,39.86,31.86,43.01,0,0-1.64-14.54,11.99-22.18,9.82-5.51,14.39-12.6,16.17-16.13-1.59-.84-2.71-2.48-2.42-4.8"/>
    <path class="cls-1" d="m272.79,457.23s-3.58,6.48-12.09,7.22-9.74-6.44-10.4-11.42-2.1-11.34,4.82-15.59c6.92-4.25,10.83-8.23,16.77-2.06,5.94,6.17,8.59,8.85,8.09,12.84-.5,3.99-7.2,9.01-7.2,9.01Z"/>
  </g>
  <path class="cls-3" d="m478.38,402.52s9.6-57.26,10.15-85.16c.54-27.9.82-55.81.82-55.81,0,0-1.96-14.68,8-10.75,9.97,3.93,69.64,24.88,69.64,24.88,0,0,36.51,10.51,42.76,13.05s16.76,5.71,23.01,10.69,48.56,28.45,61.51,31.44c12.96,2.99,51.19,12.71,59.4,21.41s25.85,22.53,25.85,22.53c0,0,16.13,14.04,35.6,13.59,19.48-.45,25.1-.45,20.2-6.7s-16.49-15.04-19.12-15.85-22.38-10.15-26.18-20.02-11.51-21.38-21.2-21.92c-9.69-.54-26.21,5.38-43.18-10.33s-51.22-48.02-51.22-48.02c0,0-21.02-24.28-64.32-30.44s-64.87-45.84-64.87-45.84c0,0-44.63-61.67-80.15-58.04s-53.39,28.51-60.88,58.95c-7.49,30.44,6.52,59.67,6.52,59.67,0,0,12.56,41.8,5.31,65.47-7.25,23.68-26.09,64.99-26.09,64.99,0,0-24.64,36.24-24.64,64.5s-3.62,46.39,9.91,73.68,6.04,88.66,6.04,88.66c0,0-8.46,25.85-6.04,65.95s1.45,75.13-7.49,85.76c-8.94,10.63-29.47,56.77-11.11,54.6,0,0,6.76-2.66,11.35-15.46,4.59-12.8,11.35-23.43,15.7-24.88s5.31-14.5,5.31-22.95,3.87-36.96,7.97-43.73c4.11-6.76,17.39-63.06,17.39-63.06,0,0,3.87-22.47,1.45-41.07s.72-65.71.72-65.71c0,0-.24-39.38-2.17-50.73,0,0,16.91-14.74,28.51-18.6,11.6-3.87,30.92-15.46,32.86-34.79s1.39-18.09,1.39-18.9.85-9.66,1.27-11.05Z"/>
  <path class="cls-1" d="m410.74,477.71l1.99,9.42,11.93-9.06,6.43-4.71,9.69-4.89,7.52-3.44,10.15-5.35,10.42-9.87,2.94-4.67,3.4-8.24,1.59-13.82.45-8.11.23-5.89,1.09-6.34,2.17-15.17,1.59-9.15,3.94-29.9.3-2.19.35-3.1,1.25-20.17.54-8.06.18-21.43.18-23.42.14-7.88.09-5.3,1.19-4.85,2.51-1.84,1.93-.03s-26.45-12.02-32.92-16.25c-6.46-4.23-30.02-17.58-37.81-42.76-7.79-25.19-.18-40.77-.18-40.77l-6.89,9.36-3.93,6.7-4.11,8.46-4.11,11.54-1.93,11.66-.85,11.66.6,10.69,1.33,8.21,2.84,11.05,3.14,8.76,4.71,18.06,1.69,9.12,1.51,10.63.12,7.13-.24,13.29-3.26,13.83-3.44,8.52-3.99,11.23-3.38,7.79-6.89,17.21-4.89,10.39-2.75,5.33s41.76,15.81,38.5,64.19c0,0-4.05,20.11-17.09,32.43Z"/>
</svg>