<svg width="195" height="64" viewBox="0 0 195 64" fill="none" xmlns="http://www.w3.org/2000/svg">
<rect width="195" height="64" rx="32" fill="white"/>
<path d="M81.3761 41V22.8182H85.7706V30.1158H92.935V22.8182H97.3207V41H92.935V33.6935H85.7706V41H81.3761ZM117.238 31.9091C117.238 33.9096 116.853 35.6052 116.084 36.9961C115.315 38.387 114.273 39.4434 112.959 40.1655C111.651 40.8875 110.183 41.2486 108.556 41.2486C106.922 41.2486 105.451 40.8846 104.143 40.1566C102.835 39.4286 101.797 38.3722 101.027 36.9872C100.264 35.5964 99.8819 33.9036 99.8819 31.9091C99.8819 29.9086 100.264 28.2129 101.027 26.8221C101.797 25.4312 102.835 24.3748 104.143 23.6527C105.451 22.9306 106.922 22.5696 108.556 22.5696C110.183 22.5696 111.651 22.9306 112.959 23.6527C114.273 24.3748 115.315 25.4312 116.084 26.8221C116.853 28.2129 117.238 29.9086 117.238 31.9091ZM112.746 31.9091C112.746 30.7254 112.577 29.7251 112.24 28.9084C111.908 28.0916 111.429 27.4731 110.802 27.0529C110.18 26.6327 109.432 26.4226 108.556 26.4226C107.686 26.4226 106.937 26.6327 106.309 27.0529C105.682 27.4731 105.2 28.0916 104.862 28.9084C104.531 29.7251 104.365 30.7254 104.365 31.9091C104.365 33.0928 104.531 34.093 104.862 34.9098C105.2 35.7266 105.682 36.3451 106.309 36.7653C106.937 37.1855 107.686 37.3956 108.556 37.3956C109.432 37.3956 110.18 37.1855 110.802 36.7653C111.429 36.3451 111.908 35.7266 112.24 34.9098C112.577 34.093 112.746 33.0928 112.746 31.9091ZM119.804 22.8182H125.246L129.862 34.0753H130.075L134.692 22.8182H140.134V41H135.855V29.8317H135.704L131.336 40.8846H128.602L124.234 29.7695H124.083V41H119.804V22.8182ZM142.875 41V22.8182H155.553V26.3871H147.27V30.1158H154.905V33.6935H147.27V37.4311H155.553V41H142.875Z" fill="black"/>
<path fill-rule="evenodd" clip-rule="evenodd" d="M45.6139 19.5726C46.402 18.7989 47.6683 18.8108 48.442 19.5989L49.8431 21.0264C50.6168 21.8148 50.6051 23.0809 49.8168 23.8548L44.7003 28.8768H66.1718C67.2762 28.8768 68.1718 29.7723 68.1718 30.8768V32.8768C68.1718 33.9813 67.2762 34.8768 66.1718 34.8768H44.4144L49.7421 40.2044C50.5233 40.9857 50.5233 42.2518 49.7421 43.033L48.328 44.4471C47.547 45.2281 46.2806 45.2281 45.4996 44.4471L34.5861 33.5335C34.1564 33.1041 33.9633 32.5279 34.006 31.9664C33.962 31.398 34.1603 30.8145 34.599 30.3838L45.6139 19.5726Z" fill="#178FEB"/>
</svg>
