<?xml version="1.0" encoding="UTF-8"?>
<svg id="_레이어_1" data-name="레이어 1" xmlns="http://www.w3.org/2000/svg" viewBox="0 0 4230.2 420.14">
  <defs>
    <style>
      .cls-1 {
        fill: none;
        stroke: #231815;
        stroke-miterlimit: 10;
        stroke-width: 3px;
      }
    </style>
  </defs>
  <path class="cls-1" d="m46.65,329.74h91.34s-7.54-27.49-3.77-64.07c3.77-36.58,2.22-52.32,2.22-52.32,0,0,.74-12.89-5.51-18.92-6.24-6.02-5.21-4.58-5.21-4.58,0,0-5.54-3.99.85-3.92,6.39.07,31.04-.26,31.04-.26l-28.76-4.97s-3.38.06-3.55-2.88-.22-20.78-.22-20.78c0,0,.33-1.83,2.44-1.77s27.71-.61,27.71-.61c0,0,2.16.22,2.21-2.08s-.34-18.96-.34-18.96c0,0,.21-11.05-2.28-2.9,0,0-1.66,5.79-2.6,12.28s-5.18,2.55-5.43-1.61-1.21-10.98-1.21-10.98c0,0-2.33-12.34-5.69-2.25,0,0-.59,5.25-.44,11.82,0,0-.48,8.2-2.22-.81s-2.77-20.51-5.69-9.83c-2.92,10.68-3.03,17.33-3.03,17.33,0,0-.11,3.14-2.11,3.21,0,0-.85.67-.92-3.36s-.48-36.25-.48-36.25c0,0-.89-4.66,4.36-4.21s28.71-.11,28.71-.11c0,0,2.36-.52,2.4,3.92s0,75.59,0,75.59c0,0,.18,1.36-.85,2.99s-6.73,7.48-6.73,7.48c0,0-2.33,1.3-2.36,10.47s4.32,48.74,4.32,48.74c0,0,6.76,42.23.44,61.08,0,0-4.8,11.31-12.67,2.07,0,0-4.77-7.65-1.15-12.08s9.68-6.84,9.72-.41-5.17,2.99-5.17,2.99c0,0-4.4-5.51,6.5-6.43,10.85-.92,17.41-2.97,18.64,22.21,0,.12.01.25.02.37,1.18,25.57,3.33-38.35,3.33-38.35,0,0-.47-6.21,3.69-6.23,4.16-.01,42.83-1.11,42.83-1.11,0,0,4.1-1.16,4.32,4.71s-.55,32.75-.55,32.75c0,0-1.33,12.41-4.32,7.04s-7.43-22.5-7.43-22.5c0,0-4.71-11.53-6.37-1.22s-1.27,19.12-1.27,19.12c0,0,0,4.9-1.55,5.25s-2.88-4.1-2.88-4.1l-4.43-20.71s-.11-2.81-2.73-2.62-2.66,5.91-2.66,5.91l-1.07,12.53s-.15,4.62-2.55,3.99c0,0-2.73.96-3.51-5.65s-.96-10.2-.96-10.2c0,0-2.03-4.14-3.69.78s-3.33,22.35-3.33,22.35c0,0-.96,3.25,3.29,3.21s49.95.26,49.95.26c0,0,3.47-.04,3.33-4.99s-4.95-44.19-4.95-44.19c0,0-1.26-5.25-13.97-4.73s-34.36.96-34.36.96c0,0-3.92,2.07-3.92-5.17s.22-24.98.22-24.98c0,0,.35-7.15,7.56-16.18s9.03-10.7,9.64-19.18-1.72-35.97-1.72-35.97c0,0-8.31-77.09-.55-82.97,7.76-5.87,18.07-4.54,19.07,4.66,1,9.2-4.43,11.75-4.43,11.75,0,0-8.31,2.44-8.92-2.6s2.42-5.84,4.49-6.48,9.87-1.51,10.49,5.6c.63,7.11-1.4,70-1.4,70l-1.11,35.36s-1.05,3.82,2.77,8.59,13.56,13.06,13.41,18.16c0,0,.36,1.6-2.94,2.04s-39.57,1.3-39.57,1.3c0,0-5.1,1.05-.11,1.94s38.74-.28,38.74-.28c0,0,4.05-1.44,3.88,6.04l-.44,21.21s1.33,3.14-5.36,3.14-30.08.07-30.08.07c0,0-5.28.41-.04,1.48s33.7.07,33.7.07c0,0,9.38-.85,9.98,8.76s5.84,34.44,5.84,34.44c0,0,2.14,14.96,23.2,13.63l10.47-.11s10.2-1.27,11.47-8.2-.28-11.31-.28-11.31c0,0-1.16-6.43-8.53-3.1,0,0-8.04,6.76-1.16,13.63,0,0,3.82,2.55,7.54-4.66,3.71-7.2,4.82-17.01,4.38-25.55-.44-8.53-4.71-40.4-4.71-40.4,0,0-9.05-51.95,4.03-62.52l17.37-15.22s7.83-7.61,1.66-7.61-60.93.59-60.93.59c0,0-6.85.7-1.44-2.75s58.82-2,58.82-2c0,0,5.99,1.03,5.6-3.99s-.68-28.28-.68-28.28c0,0,.85-4.32-5.06-4.14s-63.81.67-63.81.67c0,0-3.84-1.26-1.03-3.03s5.32-1.48,5.32-6.8.67-24.46.67-24.46c0,0-.05-3.63,1.99-3.57s2.23,3.73,2.23,3.73c0,0,5.18,23.1,10.06,23.21,0,0,2.31.87,3.57-3.42s5.25-17.66,5.25-17.66c0,0,3.21-10.79,8.39-.31,5.17,10.47,5.51,14.98,5.51,14.98,0,0,2.51,8.31,4.32,0s1.55-15.15,1.55-15.15c0,0,.44-11.64,6.54-1.59,6.1,10.05,9.83,24.59,9.83,24.59,0,0,2.16,6.26,3.71,4.32s1.05-8.31,1.05-8.31l1.27-39.68s1.94-5.6-5.93-5.49c-7.87.11-70.16.11-70.16.11,0,0-2.66-1.33-1.77,6.98.89,8.31,3.1,43.89,3.1,43.89l.55,26.16-.07,22.11s-.22,2.66,2.01,4.38,21.93,20.1,21.93,20.1c0,0,4.43,3.03,4.66,12.19s-1.15,40.64-3.92,66.03c-2.77,25.38-1.66,40.13-1.66,40.13,0,0,1.77,21.23,26.38,20.56s182.12.17,182.12.17c0,0,44.71,2.51,42.19-19.95-2.51-22.46-57.49-56.31-57.49-56.31,0,0-22.91-17.29-4.88-50.99,18.03-33.7,119.71-9.9,119.71-9.9,0,0,71.83,20.32,57.64,49.14,0,0-16.85,40.35-104.42-12.64,0,0-56.53-45.22,8.2-60.96,64.73-15.74,100.2,9.98,100.2,9.98,0,0,62.96,33.47,122.59,11.97,0,0,40.24-27.05,67.17-16.4s11.08,35.36,11.08,35.36c0,0-7.32,8.98-24.27-.44-16.96-9.42-8.09-40.9-8.09-40.9,0,0,33.25-61.3,67.5-28.49,0,0,10.86,12.86,14.3,23.94s12.86,38.98,25.86,41.2l32.07-15.52-.22-10.86s-.44-4.21-5.32-2.81c-4.88,1.4-26.53,28.3-26.53,28.3l30.3-26.97"/>
  <path class="cls-1" d="m934.52,189.41s6.76-6.43,23.28,2.99c16.52,9.42,11.53,11.97,11.53,11.97,0,0-14.3,1.77-20.51-3.99-6.21-5.76-9.2-10.97-9.2-10.97,0,0-.44,9.09,12.64,17.18s20.91,8.09,20.91,8.09c0,0,11.45,0,12.34,5.69l-.07,1.48s4.14,1.77,2.66,8.57c0,0-.81,1.22-4.61,1.33s-7.2-.06-7.2-.06c0,0-2.77-1.08-2.11-5.79,0,0-.5-3.96,3.71-4.02s8.2.11,8.2.11"/>
  <path class="cls-1" d="m948.81,207.03s-5.87,5.38.17,14.8,5.65,10.59,23.33,12.19l10.75.31s6.54-.15,11.47,6.95,11.97,14.13,11.97,14.13c0,0,19.05,21.63,36.34,22.59,0,0,11.99,2.01,10.11-10.96,0,0-3.77,2.77-21.34-3.55-17.57-6.32-23.06-16.52-23.06-16.52l-12.69-23.22-11.77-19.88s-9.09-10.49-19.14-13.97c-10.05-3.47-13.89-5.99-13.89-5.99,0,0-4.53-2.96-7.35-6.34s-4.27-8.98-4.27-8.98c0,0-6.37-5.21-6.54-8.26-.17-3.05,1.83-12.8,12.25-10.59l9.26,6.6s3.77,2.16,1.5,6.98c-2.27,4.82-11.25,5.76-11.25,5.76"/>
  <path class="cls-1" d="m957.46,159.15s20.84,6.65,23.72,11.2c2.88,4.54-1.44,6.54-1.44,6.54,0,0-.67-5.54,9.42-1.88,10.09,3.66,38.57,24.39,38.57,24.39,0,0,36.1,32.74,34.77,52.54,0,0,1.87,5.49-6.17,11.92,0,0,12.82-10.14,10.16-22.11-2.66-11.97-15.07-25.42-15.07-25.42,0,0-31.18-30.15-36.21-32.22s-18.29-8.53-18.29-8.53c0,0-13.3-9.2-4.38-17.46s13.52-4.1,16.4-.17c2.88,3.93,4.05,20.95,4.05,20.95,0,0,2.33,7.43,8.37,2.38,6.04-5.04,8.37-16.29,8.37-16.29,0,0,5.65-23.3-8.98-23.89s-11.38.44-11.38.44l-24.46,21.8s-6.61,2.03-9.55-.79-5.76.22-3.6-7.2c0,0,1.5-4.32-3.16-4.24-4.66.08-14.22-.03-14.22-.03,0,0-9.38-.59-7.9-4.58,1.48-3.99,4.58-5.39,4.58-5.39,0,0,4.51-5.62,5.1-8.94s-.15-30.74,17.51-22.98c17.66,7.76,26.38,17.81,26.38,17.81l-24.31,19.29s-1.77,4.14,1.11,2.14c2.88-2,31.26-22.98,31.26-22.98l59.41-42.75s15.63-.63,13.15,15.48l-62.37,40.05s10.57-.96,14.41,5.99c3.84,6.95,12.71,21.58,17.22,40.05,4.51,18.47,31.18,38.06,31.18,38.06,0,0,10.35,9.9,69.76,25.64,59.41,15.74,51.88,12.71,51.88,12.71,0,0,15.37,3.84,3.55,9.61s-67.84-17.88-67.84-17.88l-56.16-17.44s-9.75-5.76-10.2,7.09c-.44,12.86-2.66,20.25-10.2,25.86-7.54,5.62-3.4,11.82,6.21,14.48,9.61,2.66,100.06,31.63,170.55,84.83,0,0,17.29,15.37,54.39,2.07,37.1-13.3,73.3-27.49,97.25-16.26,23.94,11.23,40.05,19.07,58.53,19.07s33.92,1.88,39.02-1.33c5.1-3.21,8.04-7.43,3.44-9.7s-29.93-5.38-26.77,12.97c0,0-1.72,3.77,14.52,1.44s15.57-6.04,15.57-6.04c0,0,3.21-6.87-4.1-11.47-7.32-4.6-3.55-14.98-3.55-14.98,0,0,4.14-25.64,37.54-48.48,0,0,4.77-1.74,5.1-3.18s-6.36-1.77-6.36-1.77c0,0-9.24-3.25-11.01-9.35-1.77-6.1,2.88-2.66,2.88-2.66,0,0,15.19,2.99,19.84-4.21,4.66-7.2,5.99-10.75,6.65-17.29.67-6.54.44-12.3.44-12.3,0,0,.22-3.1-5.1-2.99s-29.82-.67-29.82-.67c0,0-3.88-.67-3.88,3.33s.22,3.1.22,3.1c0,0,0,3.45,5.23,4.54s3.23,4.62,3.23,4.62c0,0-3.99,7.76,4.1,10.23s18.03.3,18.03.3c0,0,2.44-.63,2.51-2.7s2.07-7.61-2.44-9.16-15.85-3.55-18.95-1.37-6.43,2.66-6.43,2.66c0,0,.59,9.46-.89,12.49-1.48,3.03,2.66,7.17,2.66,7.17,0,0-2.22-5.47-8.87-4.66-6.65.81-11.08-2.96-12.34-6.87-1.26-3.92.59-14.19,9.16-13.97,8.57.22,8.57,4.58,8.57,4.58,0,0-4.14-2.36-4.66-8.42-.52-6.06.44-10.27,7.76-7.98,0,0-17.14-18.25-23.79-34.95-6.65-16.7-15.67-36.5-3.55-57.34,12.12-20.84,33.84-24.83,47.44-24.24s31.48,11.97,35.17,34.14c3.69,22.17-13.15,53.06-13.15,53.06,0,0-12.49,20.76-20.4,25.79,0,0-3.33,3.99,2.36,1.4s16.04-19.07,16.04-19.07l13.52-28.23s3.55-14.78,13.38-15.52c9.83-.74,11.68,2.14,14.78,9.38,3.1,7.24-1.26,18.62-6.72,23.2-5.47,4.58-17.51,6.43-22.02,2.51-4.51-3.92-8.13,3.69-8.13,3.69l-2.74,4.76-4.09,7.1s5.32-2.66,3.88,7.98-5.54,13.19-4.88,28.82c.67,15.63,1.55,23.39,1.55,23.39,0,0,1.61,4.05-1.72,6.71s-11.47,1.33-11.47,1.33c0,0-3.27.17-2.99,2.88s4.66,2.33,4.66,2.33c0,0,11.23,5.52,33.25-10.22,0,0,13.36-11.79,15.8-5.36,2.44,6.43,1.72,10.59,5.27,16.24,3.55,5.65,13.8,19.34,13.8,19.34,0,0,14.95,16.11,22.41,20.03,7.46,3.92,12.34-3.47,16.11,3.62s-3.84,16.63-3.84,16.63c0,0-10.71,17.51-15.74,6.28,0,0-2.36-9.38.81-13.74s8.87-11.6,15-7.32-.15,12.05-.15,12.05c0,0,4.95-15.3-13.82-11.31-18.77,3.99-32.81-5.76-32.81-5.76l-19.58-13.67s-10.79-9.75-20.47-9.02c-9.68.74-16.4-.44-28.82,10.64s-20.76,24.02-20.76,24.02c0,0-15.67,18.84-11.31.59,4.36-18.25,15.44-27.34,15.44-27.34,0,0,5.76-3.1,6.58,2.51s-4.51,5.25-4.51,5.25c0,0-9.09-2.73.59-11.75,9.68-9.02,26.31-16.33,36.28-15.59,9.98.74,14.63-1.51,23.94,3.03,9.31,4.54,23.83,12.08,23.61,18.51-.22,6.43-5.87,3.88-5.87,3.88,0,0-6.1-7.43.33-8.53s17.96,8.42,17.96,8.42c0,0,13.86,10.64,19.84,11.2s5.99,2.11,5.99,2.11"/>
  <path class="cls-1" d="m1553.69,216.97s2.88,1.11,9.83-1.4c6.95-2.51,8.72,2,8.72,2,0,0,7.69,6.13,20.03,3.55s25.49-8.2,32.26-13.74c6.76-5.54,14.19-5.32,14.52-2s1.88,11.97,5.65,12.97,14.74-6.43,14.74-6.43c0,0,7.65-7.65,4.32-10.53s-9.98-2-14.19.33c-4.21,2.33-11.79,1.51-7.8,15.48,3.99,13.97-1.57,17.38-1.57,17.38,0,0-8.7,9.96-19.97,9.88-11.27-.07-23.46,1.03-34.1-4.8-10.64-5.84-16.92-9.83-16.92-9.83,0,0,16.77,28.75,13.97,47.37"/>
  <path class="cls-1" d="m1512.57,238.63s3.55,2.66,4.99-3.44c1.44-6.1.78-47.88.78-47.88,0,0,0-16.18-6.76-14.3-6.76,1.88-8.98,7.09-6.76,13.52,2.22,6.43,8.09,12.53,19.07,7.54,10.97-4.99,15.96-14.52,15.96-14.52,0,0,2-10.75-6.21-7.54s-7.09,55.64-7.09,55.64c0,0-.55,6.54,3.33,6.32"/>
  <path class="cls-1" d="m1638.6,361.88s3.1,19.95,43.89,7.09c40.79-12.86,79.36-26.16,140.99-3.1,61.63,23.06,84.24,10.64,84.24,10.64,0,0,23.94-9.75,7.98-31.04-15.96-21.28-42.56-13.74-37.69-38.57,4.88-24.83,45.22-34.14,45.22-34.14v-133.9s-.22-14.19,12.41-13.74c12.64.44,131.24,0,131.24,0,0,0,11.75-2,13.08,11.75l-.44,127.03s3.1,10.86-14.41,11.31c-17.51.44-128.36-1.55-128.36-1.55,0,0-10.42.22-.44-9.31,9.98-9.53,50.99-56.09,50.99-56.09,0,0,.89-.98,1.53-3.62s3.1-11.75,3.1-11.75c0,0,.52-3.42,2.72-3.51s3.69,6.23,3.69,6.23l4.53,13.5"/>
  <line class="cls-1" x1="1991.12" y1="199.77" x2="1999.47" y2="199.85"/>
  <line class="cls-1" x1="2008.19" y1="187.73" x2="2008.28" y2="209.51"/>
  <path class="cls-1" d="m2128.09,212.28c11.6-.15,10.75-5.43,10.75-5.43-.48-8.05-11.42-5.76-11.42-5.76,0,0-.18,13.23-.07,16.92.11,3.69.74,4.36.74,4.36,3.69,9.02,87.79,35.4,95.18,39.16s.37,5.25.37,5.25c0,0-121.12,30.52-133.38,32-12.27,1.48-13.01-7.24-13.01-7.24,0,0-26.01-105.97-28.38-121.34-2.36-15.37,9.9-15.81,9.9-15.81l125.03-31.78s10.94-5.76,14.34,4.43c3.4,10.2,29.85,121.49,29.85,121.49,0,0-.59,9.9,16.11,10.79,16.7.89,49.7-5.06,63.22-19.25,13.52-14.19,25.94-45,25.94-45,0,0,8.76-23.06,52.98-26.05,44.23-2.99,65.07,15.52,64.07,32.59-1,17.07,1.22,47.44-38.46,63.85,0,0-51.1,6.1-46.44,41.34,0,0,4.43,48.88,82.8,45.56,0,0,11.64-1.55,20.06-13.41s38.46-11.97,50.1-1.44c11.64,10.53,31.81,17.96,52.43,11.86,20.62-6.1,17.4-10.53,17.4-10.53,0,0-5.54-11.2-24.94-10.75,0,0-6.1-1.27-8.98,5.1-2.88,6.37-4.82,12.14-4.82,12.14,0,0-2,3.21-3.6-.61-1.61-3.82-1-11.2-1-11.2,0,0-1.5-9.64,17.18-7.54,18.68,2.11,27.88,6.1,27.88,6.1l48.72,11.42s27.38,6.21,58.41,4.66c31.04-1.55,28.82-3.99,28.82-3.99,0,0,2.88-5.32-.33-8.65s-16.18-11.2-16.18-11.2c0,0-3.36-1.7-7.2-1.63-3.84.07-11.05-.59-7.98,4.73,3.07,5.32,7.46,11.6,7.46,11.6,0,0,2.81,5.02-.81,5.17s-5.8-8.39-5.8-8.39c0,0-5.95-8.87-12.16-9.2-6.21-.33-28.54,1.59-28.54,1.59,0,0-14.85.11-10.64,10.75,0,0,1.27,1.88,3.44-.61s2.27-8.48-.28-10.42-8.09-9.92-13.74-11.92-54.98-22.28-54.98-22.28c0,0-5.91-2.4-12.86-3.95-6.95-1.55-12.27-6.8-15.52-11.68s.52-11.01-9.16-11.9c-9.68-.89-31.55-1.03-27.78,13.67,3.77,14.71,29.04,26.45,29.04,26.45,0,0,45.59,24.98,72.31,25.42s23.83-2.36,23.83-2.36c0,0-2.44-5.76,21.13-6.13,23.57-.37,40.64-8.94,40.64-8.94,0,0,22.76-9.68,24.53-23.79,0,0,5.02-16.55-3.69-22.91s-25.42-2-25.42-2c0,0-8.42,4.06-12.12,10.86-3.69,6.8-21.87,4.8-21.87,4.8l-91.93-.22s-9.75.15-9.75-11.97,1.63-52.76,1.63-52.76c0,0,.7-5.34-3.18-5.45s-6.6.5-6.43,9.92c.17,9.42,0,45.34,0,45.34,0,0-1.63,15.81,14.04,17.59,15.67,1.77,103.31,1.92,103.31,1.92,0,0,18.47.74,21.43-6.21s4.73-74.34,4.73-74.34c0,0,1.77-6.36-9.9-5.62-11.68.74-123.11.89-123.11.89,0,0-16.55-3.4-14.04,20.69l.15,23.5s.59,5.02-3.4,5.02-2.66-14.34-2.66-14.34l2.07-52.02s2.07-34.29,25.72-39.61c0,0,8.61-3.4,20.25,2.36,11.64,5.76,14.19,8.65,27.93,8.15,13.74-.5,19.79-4.77,19.79-4.77,0,0,.78-1.44-.39-2.11s-1.66-1.77-7.09.39c0,0-9.2,4.6-21.61,1.27-12.41-3.33-21.34-8.31-23.28-11.69s-1.72-11.42,1.27-16.68c2.99-5.27,10.14-14.69,11.69-23.28,1.55-8.59,3.49-22.94,7.48-28.27,3.99-5.32,6.76-14.91,16.85-10.53,0,0,2.6,1.84,2.8,5.9.19,4.06-1.51,10.06-2.54,11.85s-11.85,13.34-11.85,13.34c0,0-4.36,4.18-3.99,10.97.37,6.8,3.25,25.79.07,31.33-3.18,5.54-11.97,7.02-2.29-5.17,0,0,4.8-5.91,7.83-1.7,3.03,4.21,5.99,11.16,13.3,7.17,0,0,6.58-5.91,7.91-11.16,0,0,.26-1.48,1.59-1.66s3.14.92,2.59-2.55c-.55-3.47-.96-12.82-.96-12.82,0,0-.74-6.24,5.36-6.36,6.1-.11,7.69-1.22,7.24-7.06-.44-5.84-4.06-11.16-4.06-11.16,0,0-3.62-5.1-13.45-6.5,0,0-4.58.59-4.36-5.17.22-5.76-1.33-7.17-1.33-7.17,0,0-7.32-9.02,8.5-6.06,15.81,2.96,23.35,15.37,25.72,21.43,2.36,6.06,3.1,24.09,3.1,31.63v11.77s-.55,5.99,4.32,13.3c4.88,7.32,13.3,21.95,13.36,22.17s6.37,7.65-2.6,18.4c-8.98,10.75-11.08,9.81-10.97,15.41s-4.1,6.76-7.48,6.43-8.37-.22-8.37-.22c0,0-8.87.28-8.98-8.04-.11-8.31,3.21-18.51,3.21-18.51,0,0,.39-1.22,1.77-3.77s1.83-3.44,2-5.87.3-6.91.3-6.91c0,0-.37-5.51-5.36-7.61s-11.86-3.66-11.86-3.66c0,0-4.91-1.33-2.88-5.28,2.03-3.95,8.09-8.31,8.09-8.31,0,0,9.55-8.57,10.85-14.72,0,0,2.55-6.98,2.66-11.31.11-4.32.39-9.5,3.57-8.29s4.32,2.38,4.35,7.98-2.13,15.77-6.12,22.2-.28,10.36-.28,10.36c0,0,23.5,16.13,27.16,43.28,0,0,.72,16.24,14.13,18.4,0,0,7.2,0,7.2,8.04s-3.71,46.39-3.71,46.39c0,0-4.21,9.2,8.76,10.53s23.61,7.09,25.83,13.3c2.22,6.21,2.99,18.73-2.88,24.83-5.87,6.1-11.31,11.53-16.96,14.63s-3.55,5.76,1.44,8.76,13.86,5.43,15.85,12.08c2,6.65,3.77,8.98,12.3,8.87,8.53-.11,17.29-9.31,17.29-9.31,0,0,11.08-13.52,36.5,4.06,25.42,17.59,35.32-1.92,35.32-1.92,0,0,5.47-22.32,87.05,22.17,0,0,16.4,16.7,53.06-2.36,0,0,18.4-13.97,51.65-10.42,33.25,3.55,44.34.22,44.34.22,0,0,10.2-1.33,9.31-11.31-.89-9.98-6.87-20.4-6.43-27.49.44-7.09,3.77-83.35,25.94-82.91,0,0,5.32.61,11.8,5.76,6.48,5.15,17.24,6.1,17.24,6.1,0,0,3.93,1.22-.06,3.49s-14.41-1.66-14.41-1.66c0,0-14.91-4.66-16.35-10.2-1.44-5.54,2.38-13.52,2.38-13.52,0,0,23-73.66,50.6-71.44s11.2,53.76,11.2,53.76c0,0-8.31,20.62,7.43,25.05,15.74,4.43,17.29,1.77,17.29,1.77,0,0,4.66-2,4.32,3.66-.33,5.65-.44,11.08,5.1,11.31s10.97-4.21,17.96-2.33c6.98,1.88,18.95,5.65,18.95,5.65,0,0,8.2,3.55,10.75-.78,2.55-4.32-8.53-8.31-8.53-8.31,0,0-9.53-3.55-14.41-8.65s-19.95-4.77-25.49.67c-5.54,5.43-2,11.86-1.33,16.29.67,4.43-12.97,2.99-12.97,2.99,0,0-42.45,5.21-46.33-3.55-3.88-8.76-1.44-25.72-1.44-25.72l-1-40.57s-3.1-24.72,25.27-33.47l12.16-2.33s6.5-1.63,7.91-4.36c1.4-2.73,7.54-3.55,9.31,2.59,1.77,6.13,4.21,26.68,18.62,33.92,0,0,7.69,4.06,10.35,2.88s2.18-3.82,2.18-3.82c0,0,.67-4.82,5.21-4.88s4.05-3.38,4.05-3.38c0,0,.89-2.33,3.16-2.22s4.6.72,4.6.72c0,0,1.27-.22.55-2.49s1.72-8.59,1.72-8.59c0,0,1.26-1.87,3.14-1.94s4.14-3.51,5.54-5.54,2.73-9.42,4.56-11.25,5.71-14.02.39-20.67c-5.32-6.65-20.73-19.95-39.79-8.65,0,0-8.9,11.72-7.48,8.37,1.41-3.35,3.46-6.57,7.23-9.48,3.77-2.91,7.54-3.66,7.15-6.01-.39-2.36-5.09-7.14-12.92-4.78-7.83,2.36-23.35,4.8-24.39,30.67,0,0,4.58,17,12.41,11.97,0,0,5.17-3.99,5.39-9.09s3.4-12.05,4.8-4.95c1.4,7.09,4.14,16.55,1.55,19.21s-7.54.52-6.87-2.73c.67-3.25,2.88-8.94,5.17-1.63,0,0,.15,5.25-2.29,14.48-2.44,9.24,12.27,30.22,12.27,30.22,0,0,2.96,8.65-5.32,22.69-8.28,14.04-8.57,33.18-5.25,54.02,3.33,20.84.44,28.82.44,28.82,0,0-.37,10.05,2.59,15.96,2.96,5.91-9.53,5.91-9.53,5.91,0,0-11.01-.15-5.25,8.05,5.76,8.2,17.14,7.09,17.14,7.09,0,0,5.02.74,4.95-2.14s-9.98-12.27-9.98-12.27c0,0-9.61-2.73-12.64-2.73s-4.06-7.98-4.06-7.98l-3.55-37.91s1.33-11.9-10.12-8.72c-11.45,3.18-17-2.66-16.63,11.23.37,13.89,5.32,44.78,5.32,44.78,0,0,3.99,11.6-8.5,12.34-12.49.74-48.62,5.76-48.62,5.76,0,0-9.31-.3-12.71,10.2-3.4,10.49,1.18,10.35,11.68,9.31,10.49-1.03,96.21-15.67,96.21-15.67,0,0,14.19-4.88,14.63,6.65,0,0,3.1,9.02-6.8,10.05-9.9,1.03-107,6.36-107,6.36,0,0-14.04-.15,2.51-4.73s97.69-12.27,97.69-12.27c0,0,17.51-3.95,24.72,6.36,0,0,1.92,2.99,10.16,3.29,8.24.3,71.53-1.07,71.53-1.07,0,0,38.24.78,47.44,1.55,9.2.78,17.51-1,18.29-6.43.78-5.43.11-66.28.11-66.28,0,0,.33-7.76-5.32-7.98s-106.3.67-106.3.67c0,0-7.2-1.88-6.76,7.43.44,9.31,1,55.2,1,55.2l.22,7.43s-2,5.21,8.65,4.54c10.64-.67,83.13,1.11,83.13,1.11,0,0,20.17,2.33,19.4-5.32-.78-7.65-1.11-59.3-1.11-59.3,0,0,1.05-3.33-5.21-5.27s-6.87-9.26-5.54-11.03,5.76-10.86,5.76-10.86c0,0,.41-14.45,10.38-14.45s16.11,3.25,17,3.99,9.31,4.29,6.06,8.57c0,0-.44,1.85-4.8-.07s-13.52-1.55-13.52-1.55c0,0-6.43.22-6.95,6.58-.52,6.36,5.91,10.79,5.91,10.79,0,0,6.54.33,9.53,9.64,2.99,9.31,10.75,25.49,10.75,25.49,0,0,1.22,4.32,6.76,0,5.54-4.32,12.67-11.53,12.67-11.53,0,0,2.51-1.85.55,2.25-1.96,4.1-12.56,12.75-12.56,12.75,0,0-6.43,1.88.67,11.12,7.09,9.24,7.91,11.38,7.91,11.38,0,0,8.65,13.3,22.46,9.46,13.82-3.84,11.16-32,11.16-32l.44-19.51s2.07-25.72-1.7-31.78c-3.77-6.06-12.12-18.1-12.12-18.1,0,0-6.87-6.36-10.05,2.51-3.18,8.87.3,45.82.3,45.82,0,0-1.03,5.47,7.46,13.52,8.5,8.05,6.13,10.86,6.13,11.31s-.22,7.24-4.88,1.33-12.19-22.39-12.19-22.39c0,0-.54-1.41-2.82-.06s-2.44-3.33-2.44-3.33l-14.7-22.93s-4.66-4.73-2.14-7.39c2.51-2.66,3.84-2.88,5.76.15s4.8,11.68,9.9,6.58,4.29-14.19,4.29-14.19c0,0,.22-10.64,3.77-13.23s-.3-9.31-.3-9.31c0,0-4.56-9.74-5.01-12.56s-3.66-11.78-3.66-11.78c0,0-6.56-13.5-8.78-17.04-2.22-3.55-9.02-15.89-22.69-15.44s-24.83,14.34-24.83,14.34c0,0-5.28,6.32-7.06,16.18s-4.1,19.29-4.1,19.29c0,0-2.55,10.53.78,17.74,3.33,7.2,3.66,13.86.55,16.29s-6.54,7.09-3.44,11.53,11.08-2.22,11.08-2.22c0,0,3.77-5.54,4.32-8.65s1.88-10.42,4.21-12.08,2.11-5.54.78-8.98-6.54-8.76-6.54-14.41.55-9.09.55-9.09c0,0,.78-7.2,3.21-6.43s.55,9.53.55,9.53c0,0,.11,7.65,3.66,11.42,3.55,3.77,10.31,13.97,12.64,13.97s5.76,5.87,14.63-3.88c8.87-9.75,7.54-10.64,7.54-10.64,0,0,3.77-6.76-.22-11.86-3.99-5.1-8.42-3.33-13.41-8.09-4.99-4.77-7.87-11.53-7.2-14.52.67-2.99-16.07-17.18-16.07-17.18,0,0-18.14-10.38-18.66-11.56s-5.1-4.06-6.43-.44c-1.33,3.62-1.26,11.82-1.26,11.82,0,0,2.44,2.66,3.77-1.03,1.33-3.69,1.03-15.67,1.03-15.67l-.96-7.98s.22-3.03,1.85-4.88.44-7.46-.89-8.35-14.56-11.45-14.56-11.45c0,0-12.41-5.91-19.43-.07-7.02,5.84-14.11,8.5-15.07,23.72-.96,15.22-.37,14.11-.37,14.11,0,0,1.48,9.35,4.3,11.4,0,0,4.43,16.96,8.65,21.06,0,0,6.43,11.53,11.42,11.25,0,0,6.43,2.99,12.75-10.2s5.1-12.36,5.1-12.36c0,0,1.39-6.6.44-10.7s-1.16-12.47-1.16-12.47c0,0-.83-5.32-8.98-2.6s-16.24.72-16.24.72c0,0-6.32-.33-6.26,6.6s-2.38,5.99-2.49,5.27,1.61-8.81.44-11.58-5.04-1.33-6.48,3.55c0,0-.89,2.83-2.75,3.88s-17.92,12.86-17.92,12.86c0,0-6.54,3.93-7.15,15.57-.61,11.64.78,29.84-3.21,39s-4.43,32.37,2.51,35.91c0,0,3.69.52,8.05.52s10.83-.33,10.83-.33c0,0,3.88.44,5.21-3.55,1.33-3.99,2.66-8.2,2.66-13.3s-1.88-34.14-1.77-35.8-.22-9.09,3.33-8.2,1.66,8.31,1.55,9.53-1,34.58-1,34.58c0,0-3.66,16.18,3.77,16.74s12.53-.33,13.97-9.2c1.44-8.87,4.21-18.51,2.33-31.48-1.88-12.97-3.44-19.62,3.44-19.62s8.2,10.86,8.2,13.3.33,37.24.33,37.24c0,0-.67,3.99,6.21,6.76,6.87,2.77,24.83,15.96,24.83,15.96,0,0,4.58,2.81,4.88,16.4s.3,40.35.3,40.35c0,0-3.25,14.93,35.17,14.63,38.43-.3,184.89,17.14,258.19,3.25,73.3-13.89,107.59-17.14,107.59-17.14,0,0,13.74-6.21,20.54,10.05,6.8,16.26,7.83,19.8,19.51,19.36s61.33-.74,61.33-.74c0,0,1.33-.74-1.03-6.06s-23.65-57.49-23.65-57.49c0,0-2.22-6.93-11.97-7.76-9.75-.83-60.96-2.05-60.96-2.05,0,0-4.82-.83-2.88,4.77,1.94,5.6,29.41,59.87,29.41,59.87,0,0,.74,4.14,14.34,4.58,13.6.44,61.04,2.66,61.04,2.66l60.37-4.82s6.65-1.11,1.83-2.83l-44.39-10.7s-4.43-1.16-8.09-1-20.06.55-20.06.55c0,0-2.41.42-.83,3.85,1.58,3.44,4.6,17.29,15.19,18.04,10.59.75,58.14-6.43,58.14-6.43,0,0,4.54-.94,3.85-2.72s1.19-1.11,2.6-1.05,24.22-.3,24.22-.3c0,0,66.31.3,65.31-9.34,0,0,1.44-4.66-2.72-4.93,0,0-4.01-3.16,17.2,1.5,21.21,4.66,22.02-2.36,22.02-2.36,0,0,1.33-3.84-.15-7.83s-3.62-13.45-3.62-13.45l-2.29-31.11s.92-29.6,4.08-32.53c3.16-2.94,5.67.02,6.26-7.45s-2.29-20.4-2.29-20.4c0,0-3.99-25.12-4.06-30.3s-.59-13.74-.59-13.74c0,0-1.77-9.9-4.95-11.75s5.25,9.61,5.25,9.61c0,0,1.92,2.44,4.36-2.22,2.44-4.66,11.01-30.67,11.01-30.67,0,0,9.46-23.06,8.63-34.36-.83-11.31.11-44.01.11-44.01l1.16-25s-.33-7.59-3.93-9.87c-3.6-2.27-18.01-5.38-22.89,3.55,0,0-1.44,5.04,4.66,3.1,0,0,2.99-1.66,4.71-2.88s4.32-2.83,5.99-1.27.06,5.82-3.21,6.76-7.81-1.22-8.26,3.27c-.44,4.49,1,12.47,7.04,11.86,6.04-.61,16.79-4.54,17.46.33s-3.49,8.92-7.76,8.87-12.53-1.33-12.75,9.7c-.22,11.03-1.15,21.25-1.15,21.25,0,0-.59,9.9-7.54,22.32-6.95,12.41-12.56,22.46-12.56,22.46,0,0-.92,1.7.02,4.78s1.63,6.93,1.63,6.93c0,0,1.39,1.52,1.55,0s-2.52-6.96-5.43-8.73c-2.91-1.77-20.2-3.93-20.2-3.93,0,0,.33,8.57-2.84,15.22-3.18,6.65-6.06,14.41-6.06,14.41l8.87-9.75s8.13-7.69,7.76-12.34c-.37-4.66-8.2-9.46-8.2-9.46,0,0,2.22-1.18,1.7-7.98-.52-6.8-1.33-14.19-3.4-17.29s-4.8-7.09-10.49-5.32c0,0-1.51.44-2.48-.7s-1.55-3.69-11.16-1.85-20.99,8.13-20.51,15.89c.48,7.76,2.44,13.15,4.99,11.64s3.55-5.17,3.55-5.17c0,0,1.85-4.8,7.32-5.17s12.78.18,12.78.18c0,0,2.96.85,4.18-2.29s1.33,1.26,1.33,1.26c0,0,1.22,7.91,3.81,9.2s3.36.37,5.06-.96,4.58.55,4.14,3.4-.85,4.91-2.81,6.02-.48,4.77-3.03,10.12c-2.55,5.36-5.25,14-14.08,13.6-8.83-.41-11.42-4.84-14.11-7.94-2.7-3.1-5.21-11.88-5.21-11.88,0,0,.26-2.35,1.55,1.76,1.29,4.1,3.21,9.35-1.03,11.01s-3.77,11.31-3.77,11.31c0,0,1.15,2.99,2-.81s.85-8.53-1.29-12.08-17.96-24.42-17.96-24.42c0,0-7.98-9.98-9.26-18.34-1.27-8.37-6.6-23.33-6.82-27.43s-2.88-14.02-2.66-17.18c.22-3.16-.11-8.61,1.7-10.75s1.18-5.51-.22-6.61-11.86-.74-11.05,2.03c.81,2.77,6.8,2.62,8.5,1.18s2.59-4.73,1.03-5.95-2.36-3.77-6.69-4.32-10.6,1.11-11.71,5.06-3.33,8.46-1.66,14.89,3.51,11.2,6.58,10.79,8.65-3.47,9.87-3.29,6.76-4.32,6.84,3.81c.07,8.13-2.59,7.57-4.51,7.65s-12.56-3.33-12.23,6.43c.33,9.75,3.73,32.59,3.73,32.59,0,0,2.81,11.38,8.94,20.32,6.13,8.94,22.76,39.76,29.56,42.49,0,0-1.48-1.7-6.8-2.73-5.32-1.03-14.04-1.26-15.04,1.48-1,2.73-3.84,6.21-4.73,6.43s5.43-1.44,5.99,8.31c.55,9.75-3.88,29.93-11.31,35.91,0,0-.89,2.44,1.11-12.41s-1.44-35.36-3.44-37.02-1.22,19.29-15.07,18.62c0,0-8.92-.11-9.98-7.15,0,0,3.99,14.63,7.7,18.95,3.71,4.32.67,7.54.67,7.54,0,0-6.82-10.29-8.52-11.99s-3.4-4.8-6.8-4.21-5.47,0-4.43-2.59c1.03-2.59,5.76-5.54,5.76-5.54,0,0,2.96-2.44-2.29-5.02s-.3-8.35-.3-8.35l4.58-7.98s2.14-2.81,2.51,1.48c.37,4.29,3.62,13.45,3.62,13.45,0,0,6.8,12.34,7.09,18.25.3,5.91,5.1,16.92,3.1,27.71-2,10.79-19.14,44.71-20.03,45.15s-13.3.11-20.51-2.66-7.87-9.42.44-5.54c8.31,3.88,4.1,17.51,3.77,17.96s-13.74,27.71-28.15,27.27c-14.41-.44-14.74-5.43-3.33-6.1s55.64,1.33,55.64,1.33c0,0,56.31,6.65,55.2,9.09-1.11,2.44-14.19,1.11-15.19-4.99-1-6.1.11-22.28.11-22.28,0,0,3.33-4.99,5.54,3.66,2.22,8.65-15.74,11.97-16.96,9.98s-14.3-23.94-14.3-23.94c0,0-12.53-26.38-12.86-34.81-.33-8.42-.67-16.63,5.21-16.85s10.64,1.22,10.42,4.43c-.22,3.21-9.42,4.1-9.53,3.55s8.76-4.1,11.97-1.66-3.77,13.19-5.87,13.52-7.32,4.32-7.32,4.32c0,0-4.21,6.76,4.1,6.76s9.87-5.1,11.42.22c1.55,5.32,12.64,18.18,12.53,20.06s-5.54,5.87-5.21-.33,5.32-22.61,5.32-22.61c0,0,5.43-19.29,28.6-17.62,0,0-6.02-1.22-9.13-6.76-3.1-5.54-4.36-17.29-4.36-17.29,0,0-3.36-24.61,17.92-27.27,0,0,15.85-1.55,20.4,12.64,0,0,.78.67.89-1.44.11-2.11-.67-8.65-5.76-12.41-5.1-3.77-19.18-7.32-25.94-2-6.76,5.32-18.51,8.31-2.55,13.86,0,0-.55,1.22,6.32-1.66s15.41-6.32,15.3-1.88c-.11,4.43,5.65,14.19,8.87,14.63s6.1-.22,2,9.42c-4.1,9.64-4.1,21.06-22.94,24.39,0,0-2.22-1.33,1.11,5.32,3.33,6.65,2.99,5.43,2.99,5.43,0,0,.11,4.43,4.77-1.55,4.66-5.99,14.85-16.4,14.85-16.4,0,0,2.77-2.22,6.98,1s6.1,6.87,6.1,6.87c0,0,3.33,4.88-1.55,7.65s-12.86,4.21-8.98,8.76c3.88,4.54,8.98,5.54,4.1,13.08s-12.86,12.19-12.86,12.19c0,0-5.43,6.21-3.44-2.33s9.75-34.03,9.75-34.03c0,0,4.43-16.07,13.08-13.41,8.65,2.66,23.72,10.86,26.16,16.85,2.44,5.99-.63,48.14-18.51,63.96-17.88,15.81-16.26,18.33-28.38,10.2-12.12-8.13-32.81-43.01-35.17-46.7s-8.87-23.2-4.58-26.45c4.29-3.25,15.96-7.24,16.26-2.36s-3.4,4.51-3.4,4.51c0,0-1.77-.74.59-2.18s5.32-2.11,6.02,1.81,2.81,18.14.07,19.62-9.53,3.73-9.53,3.73c0,0-8.35.74-2.96,9.05,5.39,8.31,11.45-1.51,11.45-1.51,0,0,5.28-10.27,10.83-2,5.54,8.28,15.74,23.65,23.57,24.02,7.83.37-4.21-3.33-4.21-3.33,0,0-2.66.52,2.81-6.87,5.47-7.39,12.56-20.54,12.56-20.54,0,0,5.91-29.34,21.21-24.76,0,0,3.99,2,4.73,12.41.74,10.42,2.22,54.76,2.22,54.76,0,0-.59,6.28,7.61,5.39s15.44.67,15.44.67c0,0,7.61.44,5.69-4.95-1.92-5.39-10.86-28.01-11.6-33.84-.74-5.84-.96-17.59-.96-17.59,0,0,4.62,1.59-1.59,6.24,0,0-5.87,0-9.75-9.42s-12.75-21.06-12.75-21.06c0,0-7.32-13.08-7.32-17.18s-2.77-33.7-2.77-33.7c0,0-2.62-11.34-4.84-17.48s-5.47-16.63,1.18-17.29c6.65-.67,11.82-1.55,11.82,1.48s-2.07,7.54-4.66,5.76,4.14-9.31,6.8-6.13,2.44,15.44,1.33,20.25-6.06,1.85-6.06,1.85c0,0-13.23-5.84-9.53,5.76,3.69,11.6,14.93,4.66,14.93,4.66,0,0,3.92-4.14,5.84,5.02,1.92,9.16,8.13,34.21,13.01,40.42,4.88,6.21,9.64,16.83,23.39,15.78,0,0,.7.96-2.22,2.18s-8.35,2.03-6.72,7.17c1.63,5.14,2.73,6.91-.44,9.57-3.18,2.66-3.95,15.85,2.84,26.79,6.8,10.94,3.84,19.36,3.84,19.36,0,0-2.36-15.37-9.02-22.61-6.65-7.24,1.48-47.29,1.33-51.88-.15-4.58-2.07-22.61-2.07-26.16s-3.84-19.07,10.2-24.98c14.04-5.91,26.9-5.91,30.59,1.63s6.06,6.36,8.42,27.93c0,0,2.07,12.89,4.62,16.07,2.55,3.18,2.77,7.35-3.14,8.02-5.91.67-5.39,3.25-7.39.07-2-3.18-26.01-25.72-28.38-37.98-2.36-12.27-4.14-2.82-4.14-2.82,0,0-6.87,11.39-6.28,27.06,0,0,2.59,23.57,17.81,11.9s18.03,1.77,15.81,6.21c-2.22,4.43-11.68,19.21-15.96,15.52s-2.36-9.9-2.36-9.9c0,0,.46-7.69-4.08-.87-4.54,6.82-10.86,18.12-5.54,21.95s21.6,3.75,15.46,11.66c-6.13,7.91-9.83,9.61-9.83,9.61,0,0-6.06,3.99.07,10.57s11.97,13.97-7.24,14.11c-19.21.15-11.53,8.79-6.95,9.24s73.08.67,73.08.67c0,0,6.36.74,4.95-4.21-1.4-4.95-10.49-26.68-10.49-26.68,0,0-6.13-11.6,4.95-29.63,11.08-18.03,23.94-45.52,25.12-51.58,1.18-6.06,4.06-15.74,4.06-15.74,0,0,2.48-4.99-1.85-5.8s-13.34-3.29-13.34-3.29c0,0-4.58.04-3.81-4.66s2.29-8.46,8.72-5.73c6.43,2.73,10.6,1.33,9.68,4.77s-2.4-1.4-1.22-4.69,2.18-12.82,2.18-12.82c0,0,.92-3.88-2.66-7.2-3.58-3.33-7.43-7.61-12.67-5.36s-2.66,8.13-1.66,8.94,7.2,3.51,5.73.96c-1.48-2.55-5.06-1.55-6.95-.18-1.88,1.37-2.99,5.06-.92,9.5,2.07,4.43,2.88,16.48.81,23.2s-21.13,43.08-21.36,43.08-7.22,11.66-14.37,15.09c-7.15,3.44-.83,7.93-.83,7.93,0,0,9.81,1.39,1.77,9.42-8.04,8.04-14.58,17.51-14.58,17.51,0,0-2.99,6.82-2.77,14.91.22,8.09-1.22,8.2-1.22,8.2,0,0,0-.28.28-18.07.28-17.79,2.27-29.93,4.32-33.92,2.05-3.99,8.2-17.96,14.63-17.29s6.71,7.65,2.11,5.04-13.8-2.77-16.79,2c-2.99,4.77-13.12,17.92-21.84,16.96-8.72-.96-5.1,8.35-5.1,8.35l.07,24.53"/>
  <path class="cls-1" d="m2156.05,201.86s-.91-3.51-5.01-3.36-5.47,1.27-6.36,3.6.2,4.6,5.54,4.56,8.46.41,7.76,5.58c-.7,5.17-3.73,5.47-9.05,4.66s-5.04-2.72-5.04-2.72"/>
  <path class="cls-1" d="m4009.26,165.47s-4.8,2.36-4.51,5.62,1.85,25.2,1.85,25.2c0,0,1.55,4.21,3.62.52s-1.92-24.9-1.92-24.9c0,0-5.76-6.65-12.34-8.28-6.58-1.63-6.13-1.48-10.79,3.69s1.85,9.83,1.85,9.83c0,0,7.69,10.94,9.68,5.69s1.7-18.84-2.29-19.43"/>
  <path class="cls-1" d="m3947.85,176.7s6.95,15.07,3.99,33.25c-2.96,18.18-5.76,16.11-7.24,30.59s-13.01,47.44-14.04,58.08c-1.03,10.64-3.69,3.84-3.69,3.84,0,0-6.36-2.81-11.97-2.22-5.62.59-5.76-1.48-3.69-5.47,2.07-3.99,7.09-22.61,1.33-24.39s-23.94.44-31.33-8.28c0,0-3.84-4.32-3.47-5.62s-1.18-1.63,5.1-4.4c6.28-2.77,9.83-21.87,10.16-24.61s-2.48-29.12-2.59-30.67-.22,2.66-3.77,9.53c-3.55,6.87-18.84,13.74-18.84,13.74l19.73-5.99s5.99-4.21,6.87-6.87,6.43-6.54,7.76-3.99,4.88,1.66,2.22,3.99-1.22-3.44.78-3.33,6.32,1.33,6.32,4.99,1,11.75-5.32,13.52-24.94,12.19-25.94,12.3-9.53,6.87-17.85.44c-8.31-6.43-2.99-19.29,2.88-27.16,5.87-7.87,23.83-30.59,37.35-34.81,0,0,2.08-1.63,0-1.25s-8.92,4.77-8.92,4.77c0,0-2.2,1.21-1.24-3.15s-1.77-17.59-1.77-17.59c0,0-2.07-13.23.59-20.17s7.46-19.73,16.48-15.3c0,0,8.05-5.76,13.97.59s15.07,15.3,15.3,27.05c.22,11.75,6.87,17.96,4.06,20.62s-3.55,2.29-3.55,2.29c0,0-5.32,1.77-7.17-1.7s-3.47-15.89-3.47-15.89c0,0-1.33-6.13-3.92-7.83-2.59-1.7-12.05-10.94-12.78-12.71s-1.85-2.81-2.22-4.88-.07,2.22-2.07,6.87-5.25,6.95-6.21,14.63c-.96,7.69,3.69,18.25,10.49,20.32,6.8,2.07,11.97.52,13.52-2.88,1.55-3.4,2.88-5.54,2.81-7.76s1.22-1.48,1.22-1.48"/>
</svg>