<?xml version="1.0" encoding="UTF-8"?>
<svg id="_레이어_1" data-name="레이어 1" xmlns="http://www.w3.org/2000/svg" viewBox="0 0 3775.34 420.14">
  <defs>
    <style>
      .cls-1 {
        fill: none;
        stroke: #231815;
        stroke-miterlimit: 10;
        stroke-width: 2px;
      }
    </style>
  </defs>
  <path class="cls-1" d="m40.06,328.9h81.76s-6.75-24.61-3.37-57.35c3.37-32.74,1.98-46.83,1.98-46.83,0,0,.66-11.54-4.93-16.93-5.59-5.39-4.66-4.1-4.66-4.1,0,0-4.96-3.57.76-3.51,5.72.07,27.78-.23,27.78-.23l-25.75-4.45s-3.03.05-3.17-2.58-.2-18.6-.2-18.6c0,0,.3-1.64,2.18-1.59s24.8-.55,24.8-.55c0,0,1.93.2,1.98-1.86s-.31-16.97-.31-16.97c0,0,.19-9.89-2.04-2.6,0,0-1.49,5.18-2.33,10.99s-4.64,2.28-4.86-1.44-1.08-9.83-1.08-9.83c0,0-2.08-11.05-5.09-2.02,0,0-.53,4.7-.4,10.58,0,0-.43,7.34-1.98-.73s-2.48-18.36-5.09-8.8c-2.61,9.56-2.71,15.51-2.71,15.51,0,0-.1,2.81-1.89,2.88,0,0-.76.6-.83-3.01s-.43-32.44-.43-32.44c0,0-.79-4.17,3.9-3.77s25.7-.1,25.7-.1c0,0,2.12-.46,2.15,3.51s0,67.66,0,67.66c0,0,.16,1.22-.76,2.68s-6.03,6.7-6.03,6.7c0,0-2.08,1.17-2.11,9.38s3.87,43.63,3.87,43.63c0,0,6.05,37.8.4,54.67,0,0-4.3,10.12-11.34,1.85,0,0-4.27-6.85-1.03-10.81s8.66-6.12,8.7-.36-4.63,2.68-4.63,2.68c0,0-3.94-4.93,5.82-5.75,9.71-.82,15.59-2.66,16.69,19.88,0,.11.01.22.02.33,1.06,22.89,2.98-34.33,2.98-34.33,0,0-.42-5.56,3.3-5.57,3.72-.01,38.34-.99,38.34-.99,0,0,3.67-1.04,3.87,4.22s-.5,29.32-.5,29.32c0,0-1.19,11.11-3.87,6.3s-6.65-20.14-6.65-20.14c0,0-4.22-10.32-5.71-1.09s-1.14,17.12-1.14,17.12c0,0,0,4.38-1.39,4.7s-2.58-3.67-2.58-3.67l-3.97-18.54s-.1-2.51-2.45-2.35-2.38,5.29-2.38,5.29l-.96,11.21s-.13,4.13-2.28,3.57c0,0-2.45.86-3.14-5.06s-.86-9.13-.86-9.13c0,0-1.82-3.7-3.31.69s-2.98,20.01-2.98,20.01c0,0-.86,2.91,2.94,2.88s44.71.23,44.71.23c0,0,3.11-.03,2.98-4.46s-4.43-39.55-4.43-39.55c0,0-1.12-4.7-12.5-4.23s-30.76.86-30.76.86c0,0-3.51,1.85-3.51-4.63s.2-22.36.2-22.36c0,0,.31-6.4,6.76-14.49s8.09-9.57,8.63-17.16-1.54-32.2-1.54-32.2c0,0-7.44-69.01-.5-74.26,6.95-5.26,16.17-4.07,17.07,4.17s-3.97,10.52-3.97,10.52c0,0-7.44,2.18-7.99-2.33s2.17-5.23,4.02-5.8,8.83-1.36,9.39,5.01-1.26,62.66-1.26,62.66l-.99,31.65s-.94,3.42,2.48,7.69,12.14,11.69,12.01,16.26c0,0,.32,1.43-2.63,1.83s-35.42,1.17-35.42,1.17c0,0-4.56.94-.1,1.74s34.68-.25,34.68-.25c0,0,3.62-1.29,3.47,5.41l-.4,18.98s1.19,2.81-4.8,2.81-26.92.07-26.92.07c0,0-4.73.36-.03,1.32s30.16.07,30.16.07c0,0,8.4-.76,8.93,7.84s5.23,30.82,5.23,30.82c0,0,1.92,13.39,20.77,12.2l9.38-.1s9.13-1.14,10.27-7.34-.25-10.12-.25-10.12c0,0-1.04-5.75-7.64-2.78,0,0-7.19,6.05-1.04,12.2,0,0,3.42,2.28,6.75-4.17,3.32-6.45,4.32-15.23,3.92-22.87s-4.22-36.16-4.22-36.16c0,0-8.1-46.5,3.6-55.96l15.54-13.63s7.01-6.81,1.49-6.81-54.54.53-54.54.53c0,0-6.13.63-1.29-2.46s52.65-1.79,52.65-1.79c0,0,5.36.93,5.01-3.57s-.61-25.32-.61-25.32c0,0,.76-3.87-4.53-3.7s-57.12.6-57.12.6c0,0-3.44-1.12-.93-2.71s4.76-1.32,4.76-6.09.6-21.89.6-21.89c0,0-.04-3.25,1.78-3.19s2,3.34,2,3.34c0,0,4.64,20.67,9,20.77,0,0,2.07.78,3.19-3.06s4.7-15.81,4.7-15.81c0,0,2.88-9.66,7.51-.28s4.93,13.41,4.93,13.41c0,0,2.25,7.44,3.87,0s1.39-13.56,1.39-13.56c0,0,.4-10.42,5.85-1.42s8.8,22.01,8.8,22.01c0,0,1.93,5.61,3.32,3.87s.94-7.44.94-7.44l1.14-35.52s1.74-5.01-5.31-4.91-62.8.1-62.8.1c0,0-2.38-1.19-1.59,6.25s2.78,39.29,2.78,39.29l.5,23.42-.07,19.79s-.2,2.38,1.8,3.92,19.63,17.99,19.63,17.99c0,0,3.97,2.71,4.17,10.91s-1.03,36.38-3.51,59.1-1.49,35.92-1.49,35.92c0,0,1.59,19,23.61,18.4s163.01.15,163.01.15c0,0,40.02,2.25,37.77-17.86s-51.46-50.4-51.46-50.4c0,0-20.5-15.48-4.37-45.64,16.14-30.16,107.15-8.86,107.15-8.86,0,0,64.29,18.19,51.59,43.99,0,0-15.08,36.12-93.46-11.31,0,0-50.6-40.48,7.34-54.57,57.94-14.09,89.69,8.93,89.69,8.93,0,0,56.36,29.96,109.73,10.72,0,0,36.02-24.21,60.13-14.68s9.92,31.65,9.92,31.65c0,0-6.55,8.04-21.73-.4s-7.24-36.61-7.24-36.61c0,0,29.77-54.87,60.42-25.5,0,0,9.72,11.51,12.8,21.43,3.08,9.92,11.51,34.89,23.15,36.88l28.71-13.89-.2-9.72s-.4-3.77-4.76-2.51c-4.37,1.26-23.75,25.33-23.75,25.33l27.12-24.14"/>
  <path class="cls-1" d="m834.79,203.29s6.05-5.75,20.84,2.68c14.78,8.43,10.32,10.72,10.32,10.72,0,0-12.8,1.59-18.36-3.57-5.56-5.16-8.24-9.82-8.24-9.82,0,0-.4,8.14,11.31,15.38s18.72,7.24,18.72,7.24c0,0,10.25,0,11.05,5.09l-.07,1.32s3.7,1.59,2.38,7.67c0,0-.73,1.09-4.13,1.19s-6.45-.05-6.45-.05c0,0-2.48-.97-1.89-5.18,0,0-.45-3.55,3.32-3.6s7.34.1,7.34.1"/>
  <path class="cls-1" d="m847.59,219.07s-5.26,4.81.15,13.25c5.41,8.43,5.06,9.48,20.89,10.91l9.62.28s5.85-.13,10.27,6.22,10.72,12.65,10.72,12.65c0,0,17.05,19.36,32.53,20.22,0,0,10.73,1.8,9.05-9.81,0,0-3.37,2.48-19.1-3.17s-20.64-14.78-20.64-14.78l-11.36-20.79-10.53-17.79s-8.14-9.39-17.13-12.5c-9-3.11-12.44-5.36-12.44-5.36,0,0-4.05-2.65-6.58-5.67s-3.82-8.04-3.82-8.04c0,0-5.71-4.66-5.85-7.39-.15-2.73,1.64-11.46,10.96-9.48l8.28,5.9s3.37,1.93,1.34,6.25c-2.03,4.32-10.07,5.16-10.07,5.16"/>
  <path class="cls-1" d="m855.33,176.2s18.65,5.95,21.23,10.02c2.58,4.07-1.29,5.85-1.29,5.85,0,0-.6-4.96,8.43-1.69s34.53,21.83,34.53,21.83c0,0,32.31,29.3,31.12,47.03,0,0,1.67,4.91-5.52,10.67,0,0,11.48-9.08,9.09-19.79-2.38-10.72-13.49-22.75-13.49-22.75,0,0-27.91-26.99-32.41-28.84s-16.37-7.64-16.37-7.64c0,0-11.91-8.24-3.92-15.63s12.1-3.67,14.68-.15c2.58,3.52,3.62,18.75,3.62,18.75,0,0,2.08,6.65,7.49,2.13s7.49-14.58,7.49-14.58c0,0,5.06-20.85-8.04-21.38s-10.19.4-10.19.4l-21.89,19.51s-5.92,1.82-8.55-.71-5.16.2-3.22-6.45c0,0,1.34-3.87-2.83-3.8s-12.72-.02-12.72-.02c0,0-8.39-.53-7.07-4.1,1.32-3.57,4.1-4.83,4.1-4.83,0,0,4.03-5.03,4.56-8s-.13-27.52,15.68-20.57,23.61,15.94,23.61,15.94l-21.76,17.26s-1.59,3.7.99,1.92c2.58-1.79,27.98-20.57,27.98-20.57l53.18-38.26s13.99-.56,11.77,13.86l-55.83,35.85s9.46-.86,12.9,5.36,11.38,19.31,15.41,35.85c4.03,16.54,27.91,34.06,27.91,34.06,0,0,9.26,8.86,62.44,22.95,53.18,14.09,46.43,11.38,46.43,11.38,0,0,13.76,3.44,3.17,8.6s-60.72-16.01-60.72-16.01l-50.27-15.61s-8.73-5.16-9.13,6.35c-.4,11.51-2.38,18.12-9.13,23.15-6.75,5.03-3.04,10.58,5.56,12.96,8.6,2.38,89.56,28.31,152.66,75.93,0,0,15.48,13.76,48.68,1.85,33.2-11.91,65.62-24.61,87.05-14.55,21.43,10.05,35.85,17.07,52.39,17.07s30.36,1.69,34.92-1.19c4.56-2.88,7.19-6.65,3.08-8.68s-26.79-4.81-23.96,11.61c0,0-1.54,3.37,13,1.29,14.54-2.08,13.94-5.41,13.94-5.41,0,0,2.88-6.15-3.67-10.27-6.55-4.12-3.17-13.41-3.17-13.41,0,0,3.7-22.95,33.6-43.39,0,0,4.27-1.55,4.56-2.84s-5.69-1.59-5.69-1.59c0,0-8.27-2.91-9.86-8.37s2.58-2.38,2.58-2.38c0,0,13.59,2.68,17.76-3.77s5.36-9.62,5.95-15.48.4-11.01.4-11.01c0,0,.2-2.78-4.56-2.68s-26.69-.6-26.69-.6c0,0-3.47-.6-3.47,2.98s.2,2.78.2,2.78c0,0,0,3.09,4.68,4.07s2.89,4.13,2.89,4.13c0,0-3.57,6.95,3.67,9.16s16.14.26,16.14.26c0,0,2.18-.56,2.25-2.41s1.85-6.81-2.18-8.2-14.19-3.17-16.97-1.22-5.75,2.38-5.75,2.38c0,0,.53,8.47-.79,11.18s2.38,6.42,2.38,6.42c0,0-1.98-4.89-7.94-4.17s-9.92-2.65-11.05-6.15.53-12.7,8.2-12.5c7.67.2,7.67,4.1,7.67,4.1,0,0-3.7-2.12-4.17-7.54-.46-5.42.4-9.19,6.95-7.14,0,0-15.35-16.34-21.3-31.29s-14.02-32.68-3.17-51.33,30.29-22.22,42.47-21.7,28.18,10.72,31.48,30.56c3.31,19.84-11.77,47.49-11.77,47.49,0,0-11.18,18.59-18.26,23.08,0,0-2.98,3.57,2.12,1.26s14.35-17.07,14.35-17.07l12.1-25.27s3.17-13.23,11.97-13.89c8.8-.66,10.45,1.92,13.23,8.4,2.78,6.48-1.12,16.67-6.02,20.77-4.89,4.1-15.68,5.75-19.71,2.25-4.03-3.51-7.28,3.31-7.28,3.31l-2.45,4.26-3.66,6.36s4.76-2.38,3.47,7.14-4.96,11.81-4.37,25.8c.6,13.99,1.39,20.93,1.39,20.93,0,0,1.44,3.62-1.54,6-2.98,2.38-10.27,1.19-10.27,1.19,0,0-2.93.15-2.68,2.58s4.17,2.08,4.17,2.08c0,0,10.05,4.94,29.77-9.14,0,0,11.96-10.55,14.14-4.8,2.18,5.75,1.54,9.48,4.71,14.54,3.17,5.06,12.35,17.31,12.35,17.31,0,0,13.38,14.42,20.06,17.93,6.68,3.51,11.05-3.11,14.42,3.24s-3.44,14.88-3.44,14.88c0,0-9.59,15.68-14.09,5.62,0,0-2.12-8.4.73-12.3s7.94-10.38,13.43-6.55-.13,10.78-.13,10.78c0,0,4.43-13.69-12.37-10.12-16.8,3.57-29.37-5.16-29.37-5.16l-17.53-12.24s-9.66-8.73-18.32-8.07c-8.66.66-14.68-.4-25.8,9.52s-18.59,21.5-18.59,21.5c0,0-14.02,16.87-10.12.53,3.9-16.34,13.82-24.47,13.82-24.47,0,0,5.16-2.78,5.89,2.25s-4.03,4.7-4.03,4.7c0,0-8.14-2.45.53-10.52,8.66-8.07,23.55-14.62,32.48-13.96,8.93.66,13.1-1.36,21.43,2.71s21.33,10.81,21.13,16.57c-.2,5.75-5.26,3.47-5.26,3.47,0,0-5.46-6.65.3-7.64s16.07,7.54,16.07,7.54c0,0,12.4,9.52,17.76,10.02s5.36,1.89,5.36,1.89"/>
  <path class="cls-1" d="m1389.02,227.96s2.58.99,8.8-1.26,7.81,1.79,7.81,1.79c0,0,6.88,5.49,17.93,3.17s22.82-7.34,28.87-12.3c6.05-4.96,12.7-4.76,13-1.79s1.69,10.72,5.06,11.61c3.37.89,13.2-5.75,13.2-5.75,0,0,6.85-6.85,3.87-9.43-2.98-2.58-8.93-1.79-12.7.3-3.77,2.08-10.55,1.36-6.98,13.86,3.57,12.5-1.41,15.56-1.41,15.56,0,0-7.79,8.91-17.88,8.85s-21,.93-30.53-4.3c-9.52-5.23-15.15-8.8-15.15-8.8,0,0,15.01,25.73,12.5,42.4"/>
  <path class="cls-1" d="m1352.21,247.34s3.17,2.38,4.46-3.08.69-42.86.69-42.86c0,0,0-14.49-6.05-12.8-6.05,1.69-8.04,6.35-6.05,12.1,1.98,5.75,7.24,11.21,17.07,6.75,9.82-4.46,14.29-13,14.29-13,0,0,1.79-9.62-5.56-6.75s-6.35,49.81-6.35,49.81c0,0-.5,5.85,2.98,5.66"/>
  <path class="cls-1" d="m1465.02,357.67s2.78,17.86,39.29,6.35c36.51-11.51,71.04-23.42,126.2-2.78,55.16,20.64,75.41,9.52,75.41,9.52,0,0,21.43-8.73,7.14-27.78-14.29-19.05-38.1-12.3-33.73-34.53s40.48-30.56,40.48-30.56v-119.85s-.2-12.7,11.11-12.3,117.47,0,117.47,0c0,0,10.52-1.79,11.71,10.52l-.4,113.7s2.78,9.72-12.9,10.12c-15.68.4-114.89-1.39-114.89-1.39,0,0-9.33.2-.4-8.33,8.93-8.53,45.64-50.2,45.64-50.2,0,0,.79-.88,1.37-3.24s2.78-10.52,2.78-10.52c0,0,.46-3.06,2.43-3.14s3.31,5.57,3.31,5.57l4.05,12.09"/>
  <line class="cls-1" x1="1780.57" y1="212.57" x2="1788.04" y2="212.63"/>
  <line class="cls-1" x1="1795.85" y1="201.78" x2="1795.93" y2="221.28"/>
  <path class="cls-1" d="m1903.17,223.76c10.38-.13,9.62-4.86,9.62-4.86-.43-7.21-10.22-5.16-10.22-5.16,0,0-.17,11.84-.07,15.15.1,3.31.66,3.9.66,3.9,3.31,8.07,78.58,31.68,85.19,35.06s.33,4.7.33,4.7c0,0-108.41,27.32-119.39,28.64-10.98,1.32-11.64-6.48-11.64-6.48,0,0-23.28-94.85-25.4-108.61-2.12-13.76,8.86-14.16,8.86-14.16l111.92-28.44s9.79-5.16,12.83,3.97c3.04,9.13,26.72,108.74,26.72,108.74,0,0-.53,8.86,14.42,9.66s44.48-4.53,56.59-17.23c12.1-12.7,23.22-40.28,23.22-40.28,0,0,7.84-20.64,47.43-23.32,39.59-2.68,58.24,13.89,57.35,29.17-.89,15.28,1.09,42.47-34.43,57.15,0,0-45.74,5.46-41.57,37.01,0,0,3.97,43.75,74.12,40.78,0,0,10.42-1.39,17.96-12.01,7.54-10.62,34.43-10.72,44.85-1.29s28.48,16.07,46.93,10.62,15.58-9.43,15.58-9.43c0,0-4.96-10.02-22.32-9.62,0,0-5.46-1.14-8.04,4.56-2.58,5.71-4.32,10.86-4.32,10.86,0,0-1.79,2.88-3.22-.55s-.89-10.02-.89-10.02c0,0-1.34-8.63,15.38-6.75s24.95,5.46,24.95,5.46l43.61,10.22s24.51,5.56,52.29,4.17c27.78-1.39,25.8-3.57,25.8-3.57,0,0,2.58-4.76-.3-7.74s-14.49-10.02-14.49-10.02c0,0-3.01-1.52-6.45-1.46s-9.89-.53-7.14,4.23c2.75,4.76,6.68,10.38,6.68,10.38,0,0,2.51,4.5-.73,4.63s-5.19-7.51-5.19-7.51c0,0-5.32-7.94-10.88-8.24-5.56-.3-25.55,1.42-25.55,1.42,0,0-13.3.1-9.52,9.62,0,0,1.14,1.69,3.08-.55s2.03-7.59-.25-9.33-7.24-8.88-12.3-10.67-49.21-19.94-49.21-19.94c0,0-5.29-2.15-11.51-3.54-6.22-1.39-10.98-6.09-13.89-10.45s.46-9.86-8.2-10.65c-8.66-.79-28.24-.93-24.87,12.24s25.99,23.68,25.99,23.68c0,0,40.81,22.36,64.72,22.75s21.33-2.12,21.33-2.12c0,0-2.18-5.16,18.92-5.49,21.1-.33,36.38-8,36.38-8,0,0,20.37-8.66,21.96-21.3,0,0,4.5-14.82-3.31-20.5-7.81-5.69-22.75-1.79-22.75-1.79,0,0-7.54,3.64-10.85,9.72-3.31,6.09-19.58,4.3-19.58,4.3l-82.28-.2s-8.73.13-8.73-10.72,1.46-47.23,1.46-47.23c0,0,.63-4.78-2.84-4.88s-5.9.45-5.75,8.88c.15,8.43,0,40.58,0,40.58,0,0-1.46,14.16,12.57,15.74,14.02,1.59,92.47,1.72,92.47,1.72,0,0,16.54.66,19.18-5.56s4.23-66.54,4.23-66.54c0,0,1.59-5.69-8.86-5.03-10.45.66-110.2.79-110.2.79,0,0-14.82-3.04-12.57,18.52l.13,21.03s.53,4.5-3.04,4.5-2.38-12.83-2.38-12.83l1.85-46.57s1.85-30.69,23.02-35.45c0,0,7.71-3.04,18.12,2.12s12.7,7.74,25,7.29c12.3-.45,17.71-4.27,17.71-4.27,0,0,.69-1.29-.35-1.89s-1.49-1.59-6.35.35c0,0-8.24,4.12-19.35,1.14-11.11-2.98-19.1-7.44-20.84-10.47s-1.54-10.22,1.14-14.93c2.68-4.71,9.08-13.15,10.47-20.84s3.13-20.54,6.7-25.3c3.57-4.76,6.05-13.34,15.08-9.43,0,0,2.33,1.65,2.51,5.28.17,3.63-1.35,9-2.27,10.6s-10.6,11.94-10.6,11.94c0,0-3.9,3.74-3.57,9.82.33,6.09,2.91,23.08.07,28.05-2.84,4.96-10.72,6.28-2.05-4.63,0,0,4.3-5.29,7.01-1.52s5.36,9.99,11.91,6.42c0,0,5.89-5.29,7.08-9.99,0,0,.23-1.32,1.42-1.49s2.81.83,2.32-2.28c-.5-3.11-.86-11.48-.86-11.48,0,0-.66-5.59,4.8-5.69s6.88-1.09,6.48-6.32c-.4-5.23-3.64-9.99-3.64-9.99,0,0-3.24-4.56-12.04-5.82,0,0-4.1.53-3.9-4.63.2-5.16-1.19-6.42-1.19-6.42,0,0-6.55-8.07,7.61-5.42s20.9,13.76,23.02,19.18,2.78,21.56,2.78,28.31v10.53s-.5,5.36,3.87,11.91c4.37,6.55,11.91,19.65,11.96,19.84s5.71,6.85-2.33,16.47c-8.04,9.62-9.92,8.78-9.82,13.79s-3.67,6.05-6.7,5.75-7.49-.2-7.49-.2c0,0-7.94.25-8.04-7.19-.1-7.44,2.88-16.57,2.88-16.57,0,0,.35-1.09,1.59-3.37s1.64-3.08,1.79-5.26.26-6.18.26-6.18c0,0-.33-4.93-4.8-6.81s-10.62-3.27-10.62-3.27c0,0-4.4-1.19-2.58-4.73s7.24-7.44,7.24-7.44c0,0,8.55-7.67,9.72-13.18,0,0,2.28-6.25,2.38-10.12.1-3.87.35-8.51,3.2-7.42s3.87,2.13,3.89,7.14-1.91,14.11-5.48,19.87-.25,9.28-.25,9.28c0,0,21.03,14.44,24.31,38.74,0,0,.64,14.54,12.65,16.47,0,0,6.45,0,6.45,7.19s-3.32,41.52-3.32,41.52c0,0-3.77,8.24,7.84,9.43s21.13,6.35,23.12,11.91c1.98,5.56,2.68,16.77-2.58,22.22s-10.12,10.32-15.18,13.1c-5.06,2.78-3.17,5.16,1.29,7.84s12.4,4.86,14.19,10.81c1.79,5.95,3.37,8.04,11.01,7.94,7.64-.1,15.48-8.33,15.48-8.33,0,0,9.92-12.1,32.68,3.64,22.75,15.74,31.62-1.72,31.62-1.72,0,0,4.89-19.98,77.92,19.84,0,0,14.68,14.95,47.49-2.12,0,0,16.47-12.5,46.24-9.33,29.77,3.17,39.69.2,39.69.2,0,0,9.13-1.19,8.33-10.12-.79-8.93-6.15-18.26-5.75-24.61.4-6.35,3.37-74.61,23.22-74.21,0,0,4.76.55,10.57,5.16s15.43,5.46,15.43,5.46c0,0,3.52,1.09-.05,3.13s-12.9-1.49-12.9-1.49c0,0-13.34-4.17-14.63-9.13s2.13-12.1,2.13-12.1c0,0,20.59-65.93,45.29-63.95s10.02,48.12,10.02,48.12c0,0-7.44,18.45,6.65,22.42,14.09,3.97,15.48,1.59,15.48,1.59,0,0,4.17-1.79,3.87,3.27s-.4,9.92,4.56,10.12,9.82-3.77,16.07-2.08c6.25,1.69,16.97,5.06,16.97,5.06,0,0,7.34,3.17,9.62-.69,2.28-3.87-7.64-7.44-7.64-7.44,0,0-8.53-3.17-12.9-7.74s-17.86-4.27-22.82.6-1.79,10.62-1.19,14.58c.6,3.97-11.61,2.68-11.61,2.68,0,0-38,4.66-41.47-3.17-3.47-7.84-1.29-23.02-1.29-23.02l-.89-36.31s-2.78-22.13,22.62-29.96l10.88-2.08s5.82-1.46,7.08-3.9c1.26-2.45,6.75-3.17,8.33,2.32s3.77,23.88,16.67,30.36c0,0,6.88,3.64,9.26,2.58s1.95-3.42,1.95-3.42c0,0,.6-4.32,4.66-4.37s3.62-3.03,3.62-3.03c0,0,.79-2.08,2.83-1.98s4.12.64,4.12.64c0,0,1.14-.2.5-2.23s1.54-7.69,1.54-7.69c0,0,1.12-1.67,2.81-1.74s3.7-3.14,4.96-4.96,2.45-8.43,4.08-10.07,5.11-12.55.35-18.5c-4.76-5.95-18.55-17.86-35.62-7.74,0,0-7.96,10.49-6.7,7.49,1.27-3,3.1-5.88,6.47-8.48s6.75-3.27,6.4-5.38c-.35-2.11-4.56-6.39-11.57-4.27s-20.9,4.3-21.83,27.45c0,0,4.1,15.21,11.11,10.72,0,0,4.63-3.57,4.83-8.14s3.04-10.78,4.3-4.43c1.26,6.35,3.7,14.82,1.39,17.2s-6.75.46-6.15-2.45,2.58-8,4.63-1.46c0,0,.13,4.7-2.05,12.96-2.18,8.27,10.98,27.05,10.98,27.05,0,0,2.65,7.74-4.76,20.31-7.41,12.57-7.67,29.7-4.7,48.35,2.98,18.65.4,25.8.4,25.8,0,0-.33,9,2.32,14.29s-8.53,5.29-8.53,5.29c0,0-9.86-.13-4.7,7.21s15.35,6.35,15.35,6.35c0,0,4.5.66,4.43-1.92s-8.93-10.98-8.93-10.98c0,0-8.6-2.45-11.31-2.45s-3.64-7.14-3.64-7.14l-3.17-33.93s1.19-10.65-9.06-7.81c-10.25,2.84-15.21-2.38-14.88,10.05s4.76,40.08,4.76,40.08c0,0,3.57,10.38-7.61,11.05-11.18.66-43.52,5.16-43.52,5.16,0,0-8.33-.26-11.38,9.13-3.04,9.39,1.06,9.26,10.45,8.33,9.39-.93,86.12-14.02,86.12-14.02,0,0,12.7-4.37,13.1,5.95,0,0,2.78,8.07-6.09,9-8.86.93-95.78,5.69-95.78,5.69,0,0-12.57-.13,2.25-4.23s87.44-10.98,87.44-10.98c0,0,15.68-3.54,22.13,5.69,0,0,1.72,2.68,9.09,2.94,7.38.26,64.03-.96,64.03-.96,0,0,34.23.69,42.47,1.39,8.24.69,15.68-.89,16.37-5.75.69-4.86.1-59.33.1-59.33,0,0,.3-6.95-4.76-7.14s-95.15.6-95.15.6c0,0-6.45-1.69-6.05,6.65.4,8.33.89,49.41.89,49.41l.2,6.65s-1.79,4.66,7.74,4.07,74.41.99,74.41.99c0,0,18.06,2.08,17.36-4.76s-.99-53.08-.99-53.08c0,0,.94-2.98-4.66-4.71s-6.15-8.28-4.96-9.87,5.16-9.72,5.16-9.72c0,0,.36-12.93,9.29-12.93s14.42,2.91,15.21,3.57,8.33,3.84,5.42,7.67c0,0-.4,1.65-4.3-.07s-12.1-1.39-12.1-1.39c0,0-5.75.2-6.22,5.89-.46,5.69,5.29,9.66,5.29,9.66,0,0,5.85.3,8.53,8.63,2.68,8.33,9.62,22.82,9.62,22.82,0,0,1.09,3.87,6.05,0,4.96-3.87,11.34-10.32,11.34-10.32,0,0,2.25-1.65.5,2.02s-11.24,11.41-11.24,11.41c0,0-5.75,1.69.6,9.95,6.35,8.27,7.08,10.19,7.08,10.19,0,0,7.74,11.91,20.11,8.47,12.37-3.44,9.99-28.64,9.99-28.64l.4-17.46s1.85-23.02-1.52-28.44-10.85-16.21-10.85-16.21c0,0-6.15-5.69-9,2.25s.26,41.01.26,41.01c0,0-.93,4.89,6.68,12.1,7.61,7.21,5.49,9.72,5.49,10.12s-.2,6.48-4.37,1.19-10.91-20.04-10.91-20.04c0,0-.49-1.27-2.52-.05s-2.18-2.98-2.18-2.98l-13.15-20.52s-4.17-4.23-1.92-6.61,3.44-2.58,5.16.13,4.3,10.45,8.86,5.89,3.84-12.7,3.84-12.7c0,0,.2-9.52,3.37-11.84s-.26-8.33-.26-8.33c0,0-4.08-8.71-4.48-11.24s-3.27-10.54-3.27-10.54c0,0-5.87-12.08-7.85-15.25-1.98-3.17-8.07-14.22-20.31-13.82-12.24.4-22.22,12.83-22.22,12.83,0,0-4.73,5.66-6.32,14.49s-3.67,17.26-3.67,17.26c0,0-2.28,9.43.69,15.87,2.98,6.45,3.27,12.4.5,14.58s-5.85,6.35-3.08,10.32,9.92-1.98,9.92-1.98c0,0,3.37-4.96,3.87-7.74s1.69-9.33,3.77-10.81,1.89-4.96.69-8.04-5.85-7.84-5.85-12.9.5-8.14.5-8.14c0,0,.69-6.45,2.88-5.75s.5,8.53.5,8.53c0,0,.1,6.85,3.27,10.22,3.17,3.37,9.23,12.5,11.31,12.5s5.16,5.26,13.1-3.47c7.94-8.73,6.75-9.52,6.75-9.52,0,0,3.37-6.05-.2-10.62-3.57-4.56-7.54-2.98-12.01-7.24s-7.04-10.32-6.45-13-14.39-15.38-14.39-15.38c0,0-16.24-9.29-16.7-10.35s-4.56-3.64-5.75-.4c-1.19,3.24-1.12,10.58-1.12,10.58,0,0,2.18,2.38,3.37-.93,1.19-3.31.93-14.02.93-14.02l-.86-7.14s.2-2.71,1.65-4.37.4-6.68-.79-7.47-13.03-10.25-13.03-10.25c0,0-11.11-5.29-17.4-.07s-12.63,7.61-13.49,21.23c-.86,13.63-.33,12.63-.33,12.63,0,0,1.32,8.37,3.85,10.2,0,0,3.97,15.18,7.74,18.85,0,0,5.75,10.32,10.22,10.07,0,0,5.75,2.68,11.41-9.13,5.66-11.81,4.56-11.06,4.56-11.06,0,0,1.24-5.9.4-9.57s-1.04-11.16-1.04-11.16c0,0-.74-4.76-8.04-2.33s-14.54.64-14.54.64c0,0-5.66-.3-5.61,5.9s-2.13,5.36-2.23,4.71,1.44-7.89.4-10.37-4.51-1.19-5.8,3.17c0,0-.79,2.53-2.46,3.47s-16.04,11.51-16.04,11.51c0,0-5.85,3.52-6.4,13.94s.69,26.71-2.88,34.91-3.97,28.97,2.25,32.15c0,0,3.31.46,7.21.46s9.69-.3,9.69-.3c0,0,3.47.4,4.66-3.17s2.38-7.34,2.38-11.91-1.69-30.56-1.59-32.05-.2-8.14,2.98-7.34,1.49,7.44,1.39,8.53-.89,30.96-.89,30.96c0,0-3.27,14.49,3.37,14.98s11.21-.3,12.5-8.24,3.77-16.57,2.08-28.18c-1.69-11.61-3.08-17.56,3.08-17.56s7.34,9.72,7.34,11.91.3,33.34.3,33.34c0,0-.6,3.57,5.56,6.05,6.15,2.48,22.22,14.29,22.22,14.29,0,0,4.1,2.51,4.37,14.68.26,12.17.26,36.12.26,36.12,0,0-2.91,13.36,31.48,13.1,34.4-.26,165.49,15.35,231.11,2.91,65.62-12.44,96.31-15.35,96.31-15.35,0,0,12.3-5.56,18.39,9,6.09,14.55,7.01,17.73,17.46,17.33s54.9-.66,54.9-.66c0,0,1.19-.66-.93-5.42s-21.17-51.46-21.17-51.46c0,0-1.98-6.2-10.72-6.95-8.73-.74-54.57-1.84-54.57-1.84,0,0-4.32-.74-2.58,4.27,1.74,5.01,26.33,53.59,26.33,53.59,0,0,.66,3.7,12.83,4.1s54.64,2.38,54.64,2.38l54.04-4.32s5.95-.99,1.64-2.53l-39.74-9.57s-3.97-1.04-7.24-.89-17.96.5-17.96.5c0,0-2.16.37-.74,3.45,1.41,3.08,4.12,15.48,13.59,16.15,9.48.67,52.04-5.75,52.04-5.75,0,0,4.07-.84,3.45-2.43s1.07-.99,2.33-.94,21.68-.27,21.68-.27c0,0,59.36.27,58.46-8.36,0,0,1.29-4.17-2.43-4.42,0,0-3.59-2.83,15.4,1.34,18.98,4.17,19.71-2.12,19.71-2.12,0,0,1.19-3.44-.13-7.01s-3.24-12.04-3.24-12.04l-2.05-27.85s.83-26.49,3.65-29.12,5.08.02,5.61-6.66-2.05-18.26-2.05-18.26c0,0-3.57-22.49-3.64-27.12s-.53-12.3-.53-12.3c0,0-1.59-8.86-4.43-10.52s4.7,8.6,4.7,8.6c0,0,1.72,2.18,3.9-1.98,2.18-4.17,9.86-27.45,9.86-27.45,0,0,8.47-20.64,7.72-30.76-.74-10.12.1-39.39.1-39.39l1.04-22.37s-.3-6.8-3.52-8.83-16.12-4.81-20.49,3.17c0,0-1.29,4.51,4.17,2.78,0,0,2.68-1.49,4.22-2.58s3.87-2.53,5.36-1.14.05,5.21-2.88,6.05-6.99-1.09-7.39,2.93c-.4,4.02.89,11.16,6.3,10.62,5.41-.55,15.03-4.07,15.63.3s-3.13,7.99-6.95,7.94-11.21-1.19-11.41,8.68c-.2,9.87-1.03,19.02-1.03,19.02,0,0-.53,8.86-6.75,19.98s-11.24,20.11-11.24,20.11c0,0-.83,1.52.02,4.27s1.46,6.2,1.46,6.2c0,0,1.24,1.36,1.39,0s-2.26-6.23-4.86-7.81-18.08-3.52-18.08-3.52c0,0,.3,7.67-2.55,13.63-2.84,5.95-5.42,12.9-5.42,12.9l7.94-8.73s7.28-6.88,6.95-11.05-7.34-8.47-7.34-8.47c0,0,1.98-1.06,1.52-7.14s-1.19-12.7-3.04-15.48-4.3-6.35-9.39-4.76c0,0-1.36.4-2.22-.63s-1.39-3.31-9.99-1.65c-8.6,1.65-18.79,7.28-18.36,14.22s2.18,11.77,4.46,10.42,3.17-4.63,3.17-4.63c0,0,1.65-4.3,6.55-4.63s11.44.17,11.44.17c0,0,2.65.76,3.74-2.05s1.19,1.12,1.19,1.12c0,0,1.09,7.08,3.41,8.24s3.01.33,4.53-.86,4.1.5,3.7,3.04-.76,4.4-2.51,5.39-.43,4.27-2.71,9.06c-2.28,4.8-4.7,12.53-12.6,12.17-7.9-.36-10.22-4.33-12.63-7.11-2.41-2.78-4.66-10.63-4.66-10.63,0,0,.23-2.1,1.39,1.57,1.16,3.67,2.88,8.37-.93,9.86s-3.37,10.12-3.37,10.12c0,0,1.03,2.68,1.79-.73s.76-7.64-1.16-10.81-16.07-21.86-16.07-21.86c0,0-7.14-8.93-8.28-16.42-1.14-7.49-5.9-20.89-6.1-24.56s-2.58-12.55-2.38-15.38c.2-2.83-.1-7.71,1.52-9.62s1.06-4.93-.2-5.92-10.62-.66-9.89,1.82c.73,2.48,6.09,2.35,7.61,1.06s2.32-4.23.93-5.32-2.12-3.37-5.99-3.87-9.49.99-10.48,4.53-2.98,7.57-1.49,13.33c1.49,5.75,3.14,10.02,5.89,9.66s7.74-3.11,8.83-2.94,6.05-3.87,6.12,3.41c.07,7.28-2.32,6.78-4.03,6.85s-11.24-2.98-10.95,5.75c.3,8.73,3.34,29.17,3.34,29.17,0,0,2.51,10.19,8,18.19,5.49,8,20.37,35.59,26.46,38.03,0,0-1.32-1.52-6.09-2.45s-12.57-1.12-13.46,1.32-3.44,5.56-4.23,5.75,4.86-1.29,5.36,7.44c.5,8.73-3.47,26.79-10.12,32.15,0,0-.79,2.18.99-11.11s-1.29-31.65-3.08-33.14-1.09,17.26-13.49,16.67c0,0-7.99-.1-8.93-6.4,0,0,3.57,13.1,6.9,16.97s.6,6.75.6,6.75c0,0-6.1-9.21-7.62-10.73s-3.04-4.3-6.09-3.77-4.89,0-3.97-2.32,5.16-4.96,5.16-4.96c0,0,2.65-2.18-2.05-4.5s-.26-7.47-.26-7.47l4.1-7.14s1.92-2.51,2.25,1.32,3.24,12.04,3.24,12.04c0,0,6.09,11.05,6.35,16.34s4.56,15.15,2.78,24.8c-1.79,9.66-17.13,40.02-17.93,40.41s-11.91.1-18.36-2.38c-6.45-2.48-7.04-8.43.4-4.96,7.44,3.47,3.67,15.68,3.37,16.07s-12.3,24.8-25.2,24.41c-12.9-.4-13.2-4.86-2.98-5.46s49.81,1.19,49.81,1.19c0,0,50.4,5.95,49.41,8.14-.99,2.18-12.7.99-13.59-4.46-.89-5.46.1-19.94.1-19.94,0,0,2.98-4.46,4.96,3.27,1.98,7.74-14.09,10.72-15.18,8.93s-12.8-21.43-12.8-21.43c0,0-11.21-23.61-11.51-31.15-.3-7.54-.6-14.88,4.66-15.08s9.52,1.09,9.33,3.97-8.43,3.67-8.53,3.17,7.84-3.67,10.72-1.49-3.37,11.81-5.26,12.1-6.55,3.87-6.55,3.87c0,0-3.77,6.05,3.67,6.05s8.83-4.56,10.22.2c1.39,4.76,11.31,16.27,11.21,17.96s-4.96,5.26-4.66-.3,4.76-20.24,4.76-20.24c0,0,4.86-17.26,25.6-15.78,0,0-5.39-1.09-8.17-6.05-2.78-4.96-3.9-15.48-3.9-15.48,0,0-3.01-22.03,16.04-24.41,0,0,14.19-1.39,18.26,11.31,0,0,.69.6.79-1.29s-.6-7.74-5.16-11.11c-4.56-3.37-17.16-6.55-23.22-1.79s-16.57,7.44-2.28,12.4c0,0-.5,1.09,5.66-1.49s13.79-5.66,13.69-1.69c-.1,3.97,5.06,12.7,7.94,13.1s5.46-.2,1.79,8.43-3.67,18.85-20.54,21.83c0,0-1.98-1.19.99,4.76s2.68,4.86,2.68,4.86c0,0,.1,3.97,4.27-1.39,4.17-5.36,13.3-14.68,13.3-14.68,0,0,2.48-1.98,6.25.89,3.77,2.88,5.46,6.15,5.46,6.15,0,0,2.98,4.37-1.39,6.85s-11.51,3.77-8.04,7.84c3.47,4.07,8.04,4.96,3.67,11.71-4.37,6.75-11.51,10.91-11.51,10.91,0,0-4.86,5.56-3.08-2.08,1.79-7.64,8.73-30.46,8.73-30.46,0,0,3.97-14.39,11.71-12.01s21.23,9.72,23.42,15.08c2.18,5.36-.56,43.09-16.57,57.25-16.01,14.16-14.55,16.4-25.4,9.13-10.85-7.28-29.37-38.5-31.48-41.8s-7.94-20.77-4.1-23.68c3.84-2.91,14.29-6.48,14.55-2.12s-3.04,4.03-3.04,4.03c0,0-1.59-.66.53-1.95s4.76-1.89,5.39,1.62,2.51,16.24.07,17.56-8.53,3.34-8.53,3.34c0,0-7.47.66-2.65,8.1,4.83,7.44,10.25-1.36,10.25-1.36,0,0,4.73-9.19,9.69-1.79,4.96,7.41,14.09,21.17,21.1,21.5,7.01.33-3.77-2.98-3.77-2.98,0,0-2.38.46,2.51-6.15,4.89-6.61,11.24-18.39,11.24-18.39,0,0,5.29-26.26,18.98-22.16,0,0,3.57,1.79,4.23,11.11.66,9.33,1.98,49.01,1.98,49.01,0,0-.53,5.62,6.81,4.83s13.82.6,13.82.6c0,0,6.81.4,5.09-4.43s-9.72-25.07-10.38-30.29c-.66-5.23-.86-15.74-.86-15.74,0,0,4.13,1.42-1.42,5.59,0,0-5.26,0-8.73-8.43-3.47-8.43-11.41-18.85-11.41-18.85,0,0-6.55-11.71-6.55-15.38s-2.48-30.16-2.48-30.16c0,0-2.35-10.15-4.33-15.64s-4.89-14.88,1.06-15.48,10.58-1.39,10.58,1.32-1.85,6.75-4.17,5.16,3.7-8.33,6.09-5.49,2.18,13.82,1.19,18.12-5.42,1.65-5.42,1.65c0,0-11.84-5.23-8.53,5.16,3.31,10.38,13.36,4.17,13.36,4.17,0,0,3.51-3.7,5.23,4.5s7.28,30.63,11.64,36.18c4.37,5.56,8.63,15.06,20.93,14.12,0,0,.63.86-1.98,1.95s-7.47,1.82-6.02,6.42c1.46,4.6,2.45,6.18-.4,8.57-2.84,2.38-3.54,14.19,2.55,23.98,6.09,9.79,3.44,17.33,3.44,17.33,0,0-2.12-13.76-8.07-20.24s1.32-42.33,1.19-46.43c-.13-4.1-1.85-20.24-1.85-23.42s-3.44-17.07,9.13-22.36c12.57-5.29,24.08-5.29,27.38,1.46s5.42,5.69,7.54,25c0,0,1.85,11.54,4.13,14.39,2.28,2.84,2.48,6.58-2.81,7.18s-4.83,2.91-6.61.07-23.28-23.02-25.4-34c-2.12-10.98-3.7-2.52-3.7-2.52,0,0-6.15,10.19-5.62,24.22,0,0,2.32,21.1,15.94,10.65s16.14,1.59,14.16,5.56c-1.98,3.97-10.45,17.2-14.29,13.89s-2.12-8.86-2.12-8.86c0,0,.41-6.88-3.65-.78-4.07,6.1-9.72,16.22-4.96,19.65s19.33,3.36,13.84,10.43-8.8,8.6-8.8,8.6c0,0-5.42,3.57.07,9.46s10.72,12.5-6.48,12.63-10.32,7.87-6.22,8.27,65.42.6,65.42.6c0,0,5.69.66,4.43-3.77-1.26-4.43-9.39-23.88-9.39-23.88,0,0-5.49-10.38,4.43-26.52,9.92-16.14,21.43-40.75,22.49-46.17s3.64-14.09,3.64-14.09c0,0,2.22-4.46-1.65-5.19s-11.94-2.94-11.94-2.94c0,0-4.1.03-3.41-4.17s2.05-7.57,7.81-5.13c5.75,2.45,9.49,1.19,8.66,4.27s-2.15-1.26-1.09-4.2,1.95-11.48,1.95-11.48c0,0,.83-3.47-2.38-6.45-3.21-2.98-6.65-6.81-11.34-4.8s-2.38,7.28-1.49,8,6.45,3.14,5.13.86-4.53-1.39-6.22-.17-2.68,4.53-.83,8.5c1.85,3.97,2.58,14.75.73,20.77s-18.92,38.56-19.12,38.56-6.47,10.43-12.87,13.51c-6.4,3.08-.74,7.09-.74,7.09,0,0,8.78,1.24,1.59,8.43-7.19,7.19-13.05,15.68-13.05,15.68,0,0-2.68,6.1-2.48,13.34.2,7.24-1.09,7.34-1.09,7.34,0,0,0-.25.25-16.17.25-15.92,2.03-26.79,3.87-30.36s7.34-16.07,13.1-15.48,6,6.85,1.89,4.51-12.35-2.48-15.03,1.79-11.74,16.04-19.55,15.18-4.56,7.47-4.56,7.47l.07,21.96"/>
  <path class="cls-1" d="m1928.2,214.44s-.81-3.14-4.48-3.01-4.89,1.14-5.69,3.22.18,4.12,4.96,4.08,7.57.36,6.95,4.99c-.63,4.63-3.34,4.89-8.1,4.17s-4.51-2.43-4.51-2.43"/>
  <path class="cls-1" d="m3587.02,181.86s-4.3,2.12-4.03,5.03,1.65,22.56,1.65,22.56c0,0,1.39,3.77,3.24.46s-1.72-22.29-1.72-22.29c0,0-5.16-5.95-11.05-7.41-5.89-1.46-5.49-1.32-9.66,3.31s1.65,8.8,1.65,8.8c0,0,6.88,9.79,8.66,5.09s1.52-16.87-2.05-17.4"/>
  <path class="cls-1" d="m3532.05,191.91s6.22,13.49,3.57,29.77-5.16,14.42-6.48,27.38-11.64,42.47-12.57,51.99c-.93,9.52-3.31,3.44-3.31,3.44,0,0-5.69-2.51-10.72-1.98-5.03.53-5.16-1.32-3.31-4.89s6.35-20.24,1.19-21.83c-5.16-1.59-21.43.4-28.05-7.41,0,0-3.44-3.87-3.11-5.03s-1.06-1.46,4.56-3.94,8.8-19.58,9.09-22.03-2.22-26.06-2.32-27.45-.2,2.38-3.37,8.53c-3.17,6.15-16.87,12.3-16.87,12.3l17.66-5.36s5.36-3.77,6.15-6.15,5.75-5.85,6.95-3.57,4.37,1.49,1.98,3.57-1.09-3.08.69-2.98,5.66,1.19,5.66,4.46.89,10.52-4.76,12.1-22.32,10.91-23.22,11.01-8.53,6.15-15.97.4c-7.44-5.75-2.68-17.26,2.58-24.31s21.33-27.38,33.44-31.15c0,0,1.86-1.46,0-1.12s-7.99,4.27-7.99,4.27c0,0-1.97,1.08-1.11-2.82s-1.59-15.74-1.59-15.74c0,0-1.85-11.84.53-18.06s6.68-17.66,14.75-13.69c0,0,7.21-5.16,12.5.53s13.49,13.69,13.69,24.21c.2,10.52,6.15,16.07,3.64,18.45-2.51,2.38-3.17,2.05-3.17,2.05,0,0-4.76,1.59-6.42-1.52s-3.11-14.22-3.11-14.22c0,0-1.19-5.49-3.51-7.01-2.32-1.52-10.78-9.79-11.44-11.38s-1.65-2.51-1.98-4.37-.07,1.98-1.85,6.15-4.7,6.22-5.56,13.1,3.31,16.34,9.39,18.19,10.72.46,12.1-2.58c1.39-3.04,2.58-4.96,2.51-6.95s1.09-1.32,1.09-1.32"/>
</svg>